<svg width="111" height="87" viewBox="0 0 111 87" fill="none" xmlns="http://www.w3.org/2000/svg">
<path d="M92.4234 6.62721L80.9555 0.883789L78.6069 58.2919C78.6069 58.2919 91.7165 58.9823 92.4068 58.2919C93.0972 57.6016 92.4234 6.62721 92.4234 6.62721Z" fill="#60767C"/>
<path d="M88.5156 58.9537C87.633 58.9537 86.556 58.9395 85.2417 58.9063C81.911 58.8209 78.6253 58.6501 78.5921 58.6477L78.241 58.6287L78.2552 58.2776L80.6252 0.319092L92.7786 6.4065L92.781 6.62239C92.7834 6.75049 92.9494 19.5137 93.0301 32.1985C93.1938 58.0072 92.8712 58.3298 92.6577 58.5433C92.5058 58.6952 92.2472 58.9537 88.5156 58.9537ZM78.9788 57.9526C84.8028 58.2515 91.1773 58.3773 92.1168 58.0451C92.5485 55.8816 92.3303 26.5097 92.0741 6.84776L81.2894 1.44832L78.9788 57.9526Z" fill="black"/>
<path d="M13.9868 86.1948H78.9389L92.4114 49.4663L89.7093 53.8409C87.2279 56.7992 82.7845 58.289 78.9223 58.289H13.9868C7.58857 58.289 2.40027 63.4773 2.40027 69.8755V74.6083C2.40027 81.0089 7.58857 86.1948 13.9868 86.1948Z" fill="#EDF4F8"/>
<path d="M79.1853 86.5509H13.9864C7.40083 86.5509 2.0441 81.1942 2.0441 74.6086V69.8758C2.0441 63.2902 7.40083 57.9335 13.9864 57.9335H78.9196C83.0949 57.9335 87.2133 56.2467 89.4172 53.6324L93.9531 46.29L79.1853 86.5509ZM13.9864 58.6452C7.79464 58.6452 2.7558 63.684 2.7558 69.8758V74.6086C2.7558 80.8004 7.79464 85.8392 13.9864 85.8392H78.6895L90.8667 52.6432L89.9795 54.0713C87.6498 56.8493 83.3085 58.6452 78.9196 58.6452H13.9864Z" fill="black"/>
<path d="M78.9402 79.3787V86.1968H13.988C9.28839 86.1968 5.24356 83.3998 3.42398 79.3787" fill="#83A1A8"/>
<path d="M79.2951 86.553H13.9871C9.30406 86.553 5.02911 83.7939 3.1004 79.5261L3.74805 79.2319C5.56289 83.2459 9.58163 85.8413 13.9871 85.8413H78.5834V79.379H79.2951V86.553Z" fill="black"/>
<path d="M78.8843 86.1951C78.8843 86.1951 72.8064 71.8875 88.3475 55.4994C90.9476 52.757 92.4303 49.144 92.4303 45.3672V6.62695L110.327 14.3916V71.9445L78.8843 86.1951Z" fill="#83A1A8"/>
<path d="M78.6997 86.6699L78.5574 86.3354C78.4934 86.1859 77.0083 82.6132 77.4329 76.967C77.8244 71.7763 79.9879 63.7958 88.0895 55.253C90.6587 52.5438 92.0726 49.0328 92.0726 45.3651V6.08398L110.681 14.157V72.1725L78.6997 86.6699ZM92.7843 7.16814V45.3651C92.7843 49.2154 91.2992 52.8997 88.6042 55.7417C80.6474 64.1327 78.5242 71.9424 78.1423 77.0192C77.803 81.5195 78.733 84.7032 79.0841 85.7138L109.97 71.7147V14.6244L92.7843 7.16814Z" fill="black"/>
<path d="M78.6113 58.2879H14.2047C11.1705 58.2879 8.71039 55.8278 8.71039 52.7936V5.8498C8.71039 2.81558 11.1705 0.355469 14.2047 0.355469H78.6113C81.6455 0.355469 84.1056 2.81558 84.1056 5.8498V52.796C84.1056 55.8302 81.6455 58.2879 78.6113 58.2879Z" fill="#83A1A8"/>
<path d="M78.6109 58.6441H14.2044C10.978 58.6441 8.35422 56.0203 8.35422 52.794V5.85018C8.35422 2.6238 10.978 0 14.2044 0H78.6109C81.8373 0 84.4611 2.6238 84.4611 5.85018V52.7963C84.4611 56.0203 81.8373 58.6441 78.6109 58.6441ZM14.2044 0.711701C11.3718 0.711701 9.06592 3.01761 9.06592 5.85018V52.7963C9.06592 55.6289 11.3718 57.9348 14.2044 57.9348H78.6109C81.4435 57.9348 83.7494 55.6289 83.7494 52.7963V5.85018C83.7494 3.01761 81.4435 0.711701 78.6109 0.711701H14.2044Z" fill="black"/>
<path d="M103.869 41.0628L99.3782 42.6475C98.3035 43.0271 97.1743 42.23 97.1743 41.0889V16.4023C97.1743 15.2612 98.3011 14.4641 99.3782 14.8437L103.869 16.4284C104.531 16.6609 104.972 17.2872 104.972 17.9871V39.5041C104.974 40.204 104.531 40.8279 103.869 41.0628Z" fill="#C0C3CA"/>
<path d="M98.8228 43.0983C98.4148 43.0983 98.0162 42.9725 97.6698 42.7258C97.1313 42.3439 96.8206 41.746 96.8206 41.0865V16.4024C96.8206 15.7405 97.129 15.145 97.6698 14.7631C98.2084 14.3811 98.875 14.2886 99.4989 14.5092L103.99 16.094C104.792 16.3763 105.33 17.1378 105.33 17.9895V39.5065C105.33 40.3558 104.792 41.1174 103.99 41.402L99.4989 42.9868C99.2759 43.0603 99.0482 43.0983 98.8228 43.0983ZM98.8252 15.1047C98.5618 15.1047 98.3033 15.1854 98.0803 15.3443C97.7315 15.591 97.5323 15.9777 97.5323 16.4024V41.0865C97.5323 41.5135 97.7315 41.9002 98.0803 42.1446C98.429 42.3913 98.8584 42.4506 99.2617 42.3083L103.753 40.7235C104.27 40.5409 104.618 40.0498 104.618 39.4994V17.9823C104.618 17.432 104.27 16.9409 103.753 16.7582L99.2617 15.1735C99.117 15.1284 98.9699 15.1047 98.8252 15.1047Z" fill="black"/>
<path d="M102.759 38.7811L99.3901 40.3018V17.1833L102.759 18.7064V38.7811Z" fill="black"/>
<path d="M99.0342 40.8544V16.6328L103.115 18.4761V39.0087L99.0342 40.8544ZM99.7459 17.7336V39.7489L102.403 38.5485V18.9364L99.7459 17.7336Z" fill="black"/>
<path d="M70.4536 52.0185H22.3663C19.3321 52.0185 16.872 49.5584 16.872 46.5242V12.1206C16.872 9.08633 19.3321 6.62622 22.3663 6.62622H70.4536C73.4878 6.62622 75.9479 9.08633 75.9479 12.1206V46.5265C75.9455 49.5608 73.4878 52.0185 70.4536 52.0185Z" fill="black"/>
<path d="M70.4534 52.3769H22.3662C19.1398 52.3769 16.516 49.7531 16.516 46.5267V12.1207C16.516 8.89431 19.1398 6.27051 22.3662 6.27051H70.4534C73.6798 6.27051 76.3036 8.89431 76.3036 12.1207V46.5267C76.3012 49.7507 73.6774 52.3769 70.4534 52.3769ZM22.3638 6.98221C19.5312 6.98221 17.2253 9.28812 17.2253 12.1207V46.5267C17.2253 49.3592 19.5312 51.6652 22.3638 51.6652H70.4511C73.2836 51.6652 75.5895 49.3592 75.5895 46.5267V12.1207C75.5895 9.28812 73.2836 6.98221 70.4511 6.98221H22.3638Z" fill="black"/>
<path d="M16.1475 73.9642C18.6106 73.9642 20.6075 71.9674 20.6075 69.5042C20.6075 67.041 18.6106 65.0442 16.1475 65.0442C13.6843 65.0442 11.6875 67.041 11.6875 69.5042C11.6875 71.9674 13.6843 73.9642 16.1475 73.9642Z" fill="#C0C3CA"/>
<path d="M16.1473 74.3202C13.4927 74.3202 11.3315 72.159 11.3315 69.5043C11.3315 66.8497 13.4927 64.6885 16.1473 64.6885C18.8019 64.6885 20.9631 66.8497 20.9631 69.5043C20.9631 72.159 18.8019 74.3202 16.1473 74.3202ZM16.1473 65.3978C13.8841 65.3978 12.0432 67.2387 12.0432 69.5019C12.0432 71.7652 13.8841 73.6061 16.1473 73.6061C18.4105 73.6061 20.2514 71.7652 20.2514 69.5019C20.2514 67.2387 18.4105 65.3978 16.1473 65.3978Z" fill="black"/>
<path d="M15.6336 72.0765C17.5753 72.0765 19.1494 70.5024 19.1494 68.5607C19.1494 66.619 17.5753 65.0449 15.6336 65.0449C13.6918 65.0449 12.1178 66.619 12.1178 68.5607C12.1178 70.5024 13.6918 72.0765 15.6336 72.0765Z" fill="#C0C3CA"/>
<path d="M15.6334 72.4318C13.4983 72.4318 11.7618 70.6952 11.7618 68.5601C11.7618 66.425 13.4983 64.6885 15.6334 64.6885C17.7685 64.6885 19.5051 66.425 19.5051 68.5601C19.5051 70.6952 17.7685 72.4318 15.6334 72.4318ZM15.6334 65.4002C13.8921 65.4002 12.4735 66.8165 12.4735 68.5601C12.4735 70.3014 13.8898 71.7201 15.6334 71.7201C17.3771 71.7201 18.7934 70.3038 18.7934 68.5601C18.7934 66.8188 17.3747 65.4002 15.6334 65.4002Z" fill="black"/>
<path d="M16.7373 68.2635C16.5831 69.5114 15.8525 69.9432 14.5358 69.5351L11.2264 63.8036L13.4279 62.532L16.7373 68.2635Z" fill="#C0C3CA"/>
<path d="M15.3951 70.039C15.1056 70.039 14.783 69.9845 14.4319 69.8753L14.299 69.835L10.7405 63.674L13.5589 62.0466L17.1055 68.1886L17.0913 68.3072C17.0035 69.0142 16.7402 69.5147 16.3084 69.7923C16.0569 69.956 15.7509 70.039 15.3951 70.039ZM14.7735 69.2324C15.2836 69.37 15.6703 69.3582 15.9241 69.1945C16.1495 69.0474 16.2989 68.7603 16.3701 68.3357L13.3003 63.0193L11.7156 63.935L14.7735 69.2324Z" fill="black"/>
<path d="M45.4788 74.8821C50.2532 74.8821 54.1236 71.6798 54.1236 67.7295C54.1236 63.7792 50.2532 60.5769 45.4788 60.5769C40.7045 60.5769 36.834 63.7792 36.834 67.7295C36.834 71.6798 40.7045 74.8821 45.4788 74.8821Z" fill="#60767C"/>
<path d="M45.4785 75.2383C40.5156 75.2383 36.4779 71.8696 36.4779 67.7299C36.4779 63.5902 40.5156 60.2214 45.4785 60.2214C50.4414 60.2214 54.4792 63.5902 54.4792 67.7299C54.4792 71.8696 50.4414 75.2383 45.4785 75.2383ZM45.4785 60.9308C40.907 60.9308 37.1896 63.9792 37.1896 67.7275C37.1896 71.4758 40.9094 74.5243 45.4785 74.5243C50.0476 74.5243 53.7675 71.4758 53.7675 67.7275C53.7675 63.9816 50.05 60.9308 45.4785 60.9308Z" fill="black"/>
<path d="M38.7298 70.459C39.4415 71.1114 40.2078 71.6499 41.0334 72.0698C41.8589 72.4873 42.732 72.7934 43.6311 72.9855C44.5302 73.1682 45.453 73.2678 46.383 73.2465C47.3129 73.2275 48.2453 73.1041 49.1871 72.893C48.352 73.3817 47.3983 73.6759 46.4257 73.7992C45.4507 73.9273 44.4495 73.8823 43.4816 73.6782C43 73.5596 42.5232 73.4268 42.0653 73.237C41.6122 73.0377 41.1638 72.8266 40.7558 72.5443C39.9279 72.0081 39.2114 71.2964 38.7298 70.459Z" fill="#C0C3CA"/>
<path d="M45.4758 71.7406C49.202 71.7406 52.2227 69.2414 52.2227 66.1585C52.2227 63.0756 49.202 60.5764 45.4758 60.5764C41.7496 60.5764 38.7289 63.0756 38.7289 66.1585C38.7289 69.2414 41.7496 71.7406 45.4758 71.7406Z" fill="#83A1A8"/>
<path d="M45.4757 72.0969C41.5589 72.0969 38.3729 69.4327 38.3729 66.1589C38.3729 62.8851 41.5589 60.2209 45.4757 60.2209C49.3924 60.2209 52.5784 62.8851 52.5784 66.1589C52.5784 69.4327 49.3924 72.0969 45.4757 72.0969ZM45.4757 60.9303C41.9504 60.9303 39.0846 63.2741 39.0846 66.1565C39.0846 69.0389 41.9527 71.3828 45.4757 71.3828C49.001 71.3828 51.8667 69.0389 51.8667 66.1565C51.8667 63.2741 49.001 60.9303 45.4757 60.9303Z" fill="black"/>
<path d="M65.2637 82.0344C70.038 82.0344 73.9084 78.8321 73.9084 74.8818C73.9084 70.9316 70.038 67.7292 65.2637 67.7292C60.4893 67.7292 56.6189 70.9316 56.6189 74.8818C56.6189 78.8321 60.4893 82.0344 65.2637 82.0344Z" fill="#60767C"/>
<path d="M65.2633 82.3904C60.3004 82.3904 56.2627 79.0217 56.2627 74.882C56.2627 70.7423 60.3004 67.3735 65.2633 67.3735C70.2263 67.3735 74.264 70.7423 74.264 74.882C74.2664 79.0217 70.2263 82.3904 65.2633 82.3904ZM65.2633 68.0852C60.6918 68.0852 56.9744 71.1337 56.9744 74.882C56.9744 78.6303 60.6942 81.6787 65.2633 81.6787C69.8325 81.6787 73.5523 78.6303 73.5523 74.882C73.5547 71.1337 69.8348 68.0852 65.2633 68.0852Z" fill="black"/>
<path d="M65.2665 78.8937C68.9927 78.8937 72.0134 76.3945 72.0134 73.3116C72.0134 70.2287 68.9927 67.7295 65.2665 67.7295C61.5403 67.7295 58.5196 70.2287 58.5196 73.3116C58.5196 76.3945 61.5403 78.8937 65.2665 78.8937Z" fill="#83A1A8"/>
<path d="M65.2662 79.2521C61.3495 79.2521 58.1635 76.5879 58.1635 73.3117C58.1635 70.0379 61.3495 67.3738 65.2662 67.3738C69.183 67.3738 72.369 70.0379 72.369 73.3117C72.3714 76.5879 69.183 79.2521 65.2662 79.2521ZM65.2662 68.0855C61.7409 68.0855 58.8752 70.4293 58.8752 73.3117C58.8752 76.1941 61.7433 78.5404 65.2662 78.5404C68.7915 78.5404 71.6573 76.1965 71.6573 73.3117C71.6597 70.4293 68.7915 68.0855 65.2662 68.0855Z" fill="black"/>
<path d="M58.5195 77.6111C59.2312 78.2635 59.9975 78.802 60.8231 79.2219C61.6486 79.6394 62.5217 79.9455 63.4208 80.1376C64.3199 80.3203 65.2427 80.4199 66.1727 80.3986C67.1026 80.3796 68.035 80.2562 68.9768 80.0451C68.1417 80.5338 67.188 80.828 66.2154 80.9513C65.2404 81.0794 64.2392 81.0344 63.2713 80.8303C62.7897 80.7117 62.3129 80.5789 61.855 80.3891C61.4019 80.1898 60.9535 79.9787 60.5455 79.6964C59.7199 79.1626 59.0011 78.4509 58.5195 77.6111Z" fill="#C0C3CA"/>
<path d="M7.99491 66.9592C12.2138 66.9592 15.6338 63.5392 15.6338 59.3203C15.6338 55.1015 12.2138 51.6814 7.99491 51.6814C3.77605 51.6814 0.355988 55.1015 0.355988 59.3203C0.355988 63.5392 3.77605 66.9592 7.99491 66.9592Z" fill="#83A1A8"/>
<path d="M7.99477 67.3147C3.58697 67.3147 0 63.7278 0 59.32C0 54.9122 3.58697 51.3252 7.99477 51.3252C12.4026 51.3252 15.9895 54.9122 15.9895 59.32C15.9895 63.7278 12.4026 67.3147 7.99477 67.3147ZM7.99477 52.0393C3.97841 52.0393 0.711701 55.306 0.711701 59.3223C0.711701 63.3387 3.97841 66.6054 7.99477 66.6054C12.0111 66.6054 15.2778 63.3387 15.2778 59.3223C15.2778 55.306 12.0111 52.0393 7.99477 52.0393Z" fill="black"/>
<path d="M60.8033 39.2007C60.8033 39.8751 60.5672 40.4484 60.0951 40.9205L56.6556 44.36C56.1835 44.8321 55.6102 45.0682 54.9358 45.0682C54.2614 45.0682 53.6881 44.8321 53.216 44.36L45.7806 36.9245L38.3451 44.36C37.873 44.8321 37.2997 45.0682 36.6253 45.0682C35.9509 45.0682 35.3776 44.8321 34.9055 44.36L31.466 40.9205C30.9939 40.4484 30.7578 39.8751 30.7578 39.2007C30.7578 38.5263 30.9939 37.953 31.466 37.4809L38.9015 30.0454L31.466 22.6099C30.9939 22.1379 30.7578 21.5646 30.7578 20.8902C30.7578 20.2158 30.9939 19.6425 31.466 19.1704L34.9055 15.7308C35.3776 15.2588 35.9509 15.0227 36.6253 15.0227C37.2997 15.0227 37.873 15.2588 38.3451 15.7308L45.7806 23.1663L53.216 15.7308C53.6881 15.2588 54.2614 15.0227 54.9358 15.0227C55.6102 15.0227 56.1835 15.2588 56.6556 15.7308L60.0951 19.1704C60.5672 19.6425 60.8033 20.2158 60.8033 20.8902C60.8033 21.5646 60.5672 22.1379 60.0951 22.6099L52.6597 30.0454L60.0951 37.4809C60.5672 37.953 60.8033 38.5263 60.8033 39.2007Z" fill="#83A1A8"/>
</svg>
