<svg width="241" height="188" viewBox="0 0 241 188" fill="none" xmlns="http://www.w3.org/2000/svg">
<path d="M208.836 85.6938C208.836 39.6417 171.128 2.30908 124.613 2.30908C78.0985 2.30908 40.3906 39.6417 40.3906 85.6938C40.3906 131.746 78.0985 169.079 124.613 169.079C171.128 169.079 208.836 131.746 208.836 85.6938Z" fill="#F4F1FF"/>
<path d="M41.4156 75.4984L41.5351 66.4478C41.7089 64.3798 40.1733 62.5581 38.1017 62.3842C36.95 62.2864 35.8019 62.7392 35.0197 63.5866C33.9875 64.713 33.973 66.484 33.8607 67.9218C33.734 69.5733 33.5819 71.2248 33.4442 72.8763L29.2286 72.5213C27.0664 72.3402 25.1651 73.9447 24.984 76.1068L24.18 85.6789C23.9989 87.8411 25.6033 89.7424 27.7654 89.9235L36.1967 90.6334C37.5911 90.7493 38.8768 90.1191 39.6627 89.0797L56.5288 90.4958L57.6769 76.8565L41.4156 75.4984Z" fill="#6379A2"/>
<path d="M36.535 91.1986C36.4082 91.1986 36.2814 91.195 36.1547 91.1841L27.727 90.4743C26.5355 90.3729 25.4562 89.8151 24.6848 88.9025C23.9134 87.9898 23.544 86.8309 23.6454 85.643L24.4494 76.0709C24.5508 74.8793 25.1085 73.8001 26.0212 73.0286C26.9339 72.2572 28.0928 71.8878 29.2807 71.9892L32.9531 72.2971C32.9857 71.924 33.0183 71.551 33.0509 71.178C33.1451 70.0806 33.2392 68.9832 33.3261 67.8895C33.337 67.7446 33.3479 67.5997 33.3587 67.4512C33.4565 66.0098 33.5688 64.3801 34.6263 63.2284C35.5209 62.2541 36.8392 61.7435 38.1538 61.8485C40.5116 62.0477 42.2717 64.1229 42.0834 66.477L41.9711 75.0025L58.2687 76.3715L57.0301 91.0936L39.9104 89.6558C39.0556 90.6373 37.8315 91.1986 36.535 91.1986ZM28.9004 73.054C28.1037 73.054 27.3359 73.3329 26.7202 73.8544C26.0284 74.4375 25.6083 75.256 25.5323 76.1578L24.7283 85.7299C24.6522 86.6317 24.9311 87.5081 25.5178 88.1999C26.1009 88.8916 26.9194 89.3117 27.8212 89.3878L36.2488 90.0976C37.4114 90.1954 38.5269 89.6956 39.2367 88.7576L39.4178 88.5186L56.0413 89.9166L57.0953 77.3602L40.8701 75.9948L40.9969 66.3973C41.0693 65.5426 40.8013 64.7096 40.2472 64.0505C39.6931 63.3913 38.9144 62.9929 38.0597 62.9205C37.0782 62.8372 36.0931 63.2211 35.4231 63.9491C34.6227 64.8219 34.5249 66.2488 34.438 67.5128C34.4271 67.6649 34.4163 67.8134 34.4054 67.9619C34.3221 69.0629 34.2243 70.1639 34.1302 71.2613C34.0831 71.8154 34.036 72.3659 33.9889 72.92L33.9418 73.4596L29.1866 73.0612C29.0924 73.0612 28.9946 73.054 28.9004 73.054Z" fill="black"/>
<path d="M32.7686 81.9993C32.6636 81.9993 32.5585 81.9957 32.4571 81.9848C32.1565 81.9595 31.9356 81.6951 31.961 81.3981C31.9863 81.1011 32.2471 80.8802 32.5477 80.9019C33.2322 80.9599 33.8986 80.7462 34.4237 80.3044C34.9489 79.8625 35.2676 79.2396 35.3255 78.5551C35.445 77.1426 34.3911 75.8968 32.9787 75.7773C32.6781 75.7519 32.4571 75.4875 32.4825 75.1905C32.5078 74.8899 32.7686 74.6726 33.0692 74.6944C35.0792 74.8646 36.575 76.6356 36.4084 78.6456C36.3251 79.6199 35.8688 80.5036 35.1227 81.1337C34.4599 81.6987 33.6306 81.9993 32.7686 81.9993Z" fill="black"/>
<path d="M32.2375 88.2626C32.1361 88.2626 32.0311 88.259 31.9297 88.2481C31.6291 88.2228 31.4082 87.962 31.4335 87.6614C31.4589 87.3608 31.7232 87.1435 32.0202 87.1652C33.4327 87.2884 34.6785 86.2308 34.7981 84.8184C34.9176 83.4059 33.8637 82.1601 32.4512 82.0406L26.6529 81.4176C26.3559 81.385 26.1386 81.117 26.1712 80.82C26.2038 80.5231 26.4682 80.3021 26.7688 80.3384L32.5562 80.9613C34.5518 81.1279 36.0512 82.9025 35.8809 84.9126C35.7216 86.8176 34.1172 88.2626 32.2375 88.2626Z" fill="black"/>
<path d="M181.479 15.7774L163.972 7.00928L160.387 94.6504C160.387 94.6504 180.4 95.7044 181.454 94.6504C182.508 93.5965 181.479 15.7774 181.479 15.7774Z" fill="#60767C"/>
<path d="M175.514 95.6605C174.166 95.6605 172.522 95.6388 170.516 95.5881C165.431 95.4577 160.415 95.197 160.364 95.1933L159.828 95.1644L159.85 94.6284L163.468 6.14697L182.022 15.4402L182.025 15.7698C182.029 15.9654 182.283 35.45 182.406 54.8152C182.656 94.2155 182.163 94.708 181.837 95.034C181.605 95.2658 181.211 95.6605 175.514 95.6605ZM160.954 94.1322C169.846 94.5885 179.577 94.7805 181.011 94.2734C181.671 90.9705 181.337 46.1304 180.946 16.1138L164.482 7.87089L160.954 94.1322Z" fill="black"/>
<path d="M165.603 166.316H138.943L143.843 160.626V133H165.603V166.316Z" fill="#6379A2"/>
<path d="M166.148 166.859H137.762L143.303 160.427V132.457H166.148V166.859ZM140.13 165.772H165.058V133.543H144.386V160.829L140.13 165.772Z" fill="black"/>
<path d="M114.544 166.317H87.8848L92.7849 160.627V137.25H114.544V166.317Z" fill="#6379A2"/>
<path d="M115.09 166.86H86.7031L92.2443 160.428V136.709H115.09V166.86ZM89.0717 165.773H114V137.796H93.3272V160.83L89.0717 165.773Z" fill="black"/>
<path d="M61.7313 137.249H160.889L181.457 81.1777L177.332 87.8561C173.544 92.3724 166.76 94.6468 160.864 94.6468H61.7313C51.9636 94.6468 44.043 102.567 44.043 112.335V119.56C44.043 129.332 51.9636 137.249 61.7313 137.249Z" fill="#EDF4F8"/>
<path d="M161.264 137.792H61.7296C51.6758 137.792 43.498 129.614 43.498 119.56V112.335C43.498 102.281 51.6758 94.1034 61.7296 94.1034H160.859C167.233 94.1034 173.52 91.5283 176.885 87.5372L183.809 76.3281L161.264 137.792ZM61.7296 95.1899C52.277 95.1899 44.5846 102.882 44.5846 112.335V119.56C44.5846 129.013 52.277 136.705 61.7296 136.705H160.507L179.098 86.027L177.743 88.2073C174.187 92.4482 167.559 95.1899 160.859 95.1899H61.7296Z" fill="black"/>
<path d="M160.889 126.839V137.248H61.7309C54.5563 137.248 48.3813 132.978 45.6035 126.839" fill="#7DADCD"/>
<path d="M161.431 137.791H61.7293C54.5801 137.791 48.0538 133.579 45.1094 127.064L46.0981 126.615C48.8687 132.743 55.0038 136.705 61.7293 136.705H160.344V126.839H161.431V137.791Z" fill="black"/>
<path d="M160.807 137.249C160.807 137.249 151.528 115.406 175.254 90.3877C179.223 86.201 181.487 80.6852 181.487 74.9194V15.7773L208.809 27.6311V115.493L160.807 137.249Z" fill="#7DADCD"/>
<path d="M160.523 137.973L160.306 137.463C160.208 137.234 157.941 131.78 158.589 123.161C159.187 115.236 162.49 103.053 174.858 90.0113C178.78 85.8753 180.938 80.5152 180.938 74.9161V14.9482L209.347 27.2728V115.841L160.523 137.973ZM182.025 16.6034V74.9161C182.025 80.7941 179.758 86.4186 175.644 90.7574C163.496 103.567 160.255 115.49 159.672 123.24C159.154 130.111 160.574 134.971 161.11 136.514L208.26 115.142V27.9863L182.025 16.6034Z" fill="black"/>
<path d="M160.389 94.6486H62.0636C57.4315 94.6486 53.6758 90.8929 53.6758 86.2608V14.5949C53.6758 9.96272 57.4315 6.20703 62.0636 6.20703H160.389C165.021 6.20703 168.777 9.96272 168.777 14.5949V86.2644C168.777 90.8965 165.021 94.6486 160.389 94.6486Z" fill="#83A1A8"/>
<path d="M160.387 95.1906H62.0619C57.1364 95.1906 53.1309 91.1851 53.1309 86.2596V14.5937C53.1309 9.66818 57.1364 5.6626 62.0619 5.6626H160.387C165.313 5.6626 169.318 9.66818 169.318 14.5937V86.2632C169.318 91.1851 165.313 95.1906 160.387 95.1906ZM62.0619 6.7491C57.7376 6.7491 54.2174 10.2694 54.2174 14.5937V86.2632C54.2174 90.5875 57.7376 94.1077 62.0619 94.1077H160.387C164.711 94.1077 168.232 90.5875 168.232 86.2632V14.5937C168.232 10.2694 164.711 6.7491 160.387 6.7491H62.0619Z" fill="black"/>
<path d="M198.949 68.3463L192.093 70.7655C190.452 71.345 188.729 70.1281 188.729 68.3861V30.6988C188.729 28.9568 190.449 27.7399 192.093 28.3194L198.949 30.7387C199.959 31.0936 200.633 32.0497 200.633 33.1181V65.9668C200.637 67.0352 199.959 67.9877 198.949 68.3463Z" fill="#C0C3CA"/>
<path d="M191.246 71.4534C190.623 71.4534 190.015 71.2615 189.486 70.8848C188.664 70.3017 188.189 69.3891 188.189 68.3822V30.6986C188.189 29.6882 188.66 28.7791 189.486 28.196C190.308 27.6129 191.326 27.4717 192.278 27.8085L199.134 30.2278C200.358 30.6588 201.18 31.8213 201.18 33.1215V65.9702C201.18 67.2668 200.358 68.4293 199.134 68.8639L192.278 71.2832C191.938 71.3955 191.59 71.4534 191.246 71.4534ZM191.25 28.7175C190.848 28.7175 190.453 28.8407 190.113 29.0833C189.58 29.46 189.276 30.0503 189.276 30.6986V68.3822C189.276 69.0341 189.58 69.6245 190.113 69.9975C190.645 70.3742 191.3 70.4647 191.916 70.2474L198.772 67.8281C199.562 67.5492 200.094 66.7996 200.094 65.9593V33.1106C200.094 32.2704 199.562 31.5207 198.772 31.2419L191.916 28.8226C191.695 28.7538 191.471 28.7175 191.25 28.7175Z" fill="black"/>
<path d="M197.252 64.8649L192.109 67.1864V31.8931L197.252 34.2182V64.8649Z" fill="#414243"/>
<path d="M191.566 68.0311V31.0537L197.796 33.8678V65.2134L191.566 68.0311ZM192.653 32.7342V66.3434L196.709 64.5108V34.5704L192.653 32.7342Z" fill="black"/>
<path d="M147.93 85.0737H74.5187C69.8865 85.0737 66.1309 81.318 66.1309 76.6859V24.1642C66.1309 19.5321 69.8865 15.7764 74.5187 15.7764H147.93C152.562 15.7764 156.318 19.5321 156.318 24.1642V76.6895C156.314 81.3216 152.562 85.0737 147.93 85.0737Z" fill="black"/>
<path d="M147.929 85.6213H74.517C69.5915 85.6213 65.5859 81.6158 65.5859 76.6903V24.165C65.5859 19.2395 69.5915 15.2339 74.517 15.2339H147.929C152.854 15.2339 156.86 19.2395 156.86 24.165V76.6903C156.856 81.6121 152.85 85.6213 147.929 85.6213ZM74.5134 16.3204C70.1891 16.3204 66.6688 19.8407 66.6688 24.165V76.6903C66.6688 81.0145 70.1891 84.5348 74.5134 84.5348H147.925C152.249 84.5348 155.77 81.0145 155.77 76.6903V24.165C155.77 19.8407 152.249 16.3204 147.925 16.3204H74.5134Z" fill="black"/>
<path d="M65.0275 118.579C68.7879 118.579 71.8363 115.531 71.8363 111.77C71.8363 108.01 68.7879 104.961 65.0275 104.961C61.2671 104.961 58.2188 108.01 58.2188 111.77C58.2188 115.531 61.2671 118.579 65.0275 118.579Z" fill="#C0C3CA"/>
<path d="M65.0258 119.123C60.9732 119.123 57.6738 115.823 57.6738 111.77C57.6738 107.718 60.9732 104.418 65.0258 104.418C69.0785 104.418 72.3779 107.718 72.3779 111.77C72.3779 115.823 69.0785 119.123 65.0258 119.123ZM65.0258 105.501C61.5708 105.501 58.7603 108.312 58.7603 111.767C58.7603 115.222 61.5708 118.032 65.0258 118.032C68.4809 118.032 71.2914 115.222 71.2914 111.767C71.2914 108.312 68.4809 105.501 65.0258 105.501Z" fill="black"/>
<path d="M64.2462 115.693C67.2105 115.693 69.6136 113.29 69.6136 110.325C69.6136 107.361 67.2105 104.958 64.2462 104.958C61.2819 104.958 58.8789 107.361 58.8789 110.325C58.8789 113.29 61.2819 115.693 64.2462 115.693Z" fill="#C0C3CA"/>
<path d="M64.2446 116.236C60.9851 116.236 58.334 113.585 58.334 110.325C58.334 107.066 60.9851 104.415 64.2446 104.415C67.5041 104.415 70.1552 107.066 70.1552 110.325C70.1552 113.585 67.5041 116.236 64.2446 116.236ZM64.2446 105.501C61.5863 105.501 59.4205 107.663 59.4205 110.325C59.4205 112.983 61.5826 115.149 64.2446 115.149C66.9065 115.149 69.0687 112.987 69.0687 110.325C69.0687 107.667 66.9029 105.501 64.2446 105.501Z" fill="black"/>
<path d="M65.9249 109.876C65.6895 111.781 64.574 112.44 62.564 111.817L57.5117 103.067L60.8726 101.126L65.9249 109.876Z" fill="#C0C3CA"/>
<path d="M63.8772 112.585C63.4354 112.585 62.9428 112.501 62.4068 112.335L62.204 112.273L56.7715 102.868L61.074 100.383L66.4885 109.76L66.4667 109.941C66.3327 111.02 65.9307 111.784 65.2716 112.208C64.8877 112.458 64.4205 112.585 63.8772 112.585ZM62.9283 111.353C63.707 111.563 64.2973 111.545 64.6849 111.295C65.0289 111.071 65.2571 110.633 65.3657 109.984L60.6793 101.868L58.26 103.266L62.9283 111.353Z" fill="black"/>
<path d="M193.355 108.676C199.455 108.676 204.401 103.1 204.401 96.2211C204.401 89.3424 199.455 83.7661 193.355 83.7661C187.254 83.7661 182.309 89.3424 182.309 96.2211C182.309 103.1 187.254 108.676 193.355 108.676Z" fill="#C0C3CA"/>
<path d="M193.353 109.22C186.964 109.22 181.764 103.389 181.764 96.218C181.764 89.0506 186.961 83.2197 193.353 83.2197C199.745 83.2197 204.942 89.0506 204.942 96.218C204.942 103.389 199.742 109.22 193.353 109.22ZM193.353 84.3062C187.562 84.3062 182.85 89.6518 182.85 96.218C182.85 102.788 187.562 108.133 193.353 108.133C199.144 108.133 203.856 102.788 203.856 96.218C203.856 89.6518 199.144 84.3062 193.353 84.3062Z" fill="black"/>
<path d="M109.809 119.976C117.097 119.976 123.006 115.088 123.006 109.057C123.006 103.026 117.097 98.1377 109.809 98.1377C102.52 98.1377 96.6113 103.026 96.6113 109.057C96.6113 115.088 102.52 119.976 109.809 119.976Z" fill="#60767C"/>
<path d="M109.809 120.52C102.232 120.52 96.0684 115.377 96.0684 109.057C96.0684 102.738 102.232 97.5947 109.809 97.5947C117.386 97.5947 123.55 102.738 123.55 109.057C123.55 115.377 117.386 120.52 109.809 120.52ZM109.809 98.6776C102.83 98.6776 97.1549 103.331 97.1549 109.054C97.1549 114.776 102.834 119.43 109.809 119.43C116.784 119.43 122.463 114.776 122.463 109.054C122.463 103.335 116.788 98.6776 109.809 98.6776Z" fill="black"/>
<path d="M99.5078 113.225C100.594 114.221 101.764 115.043 103.024 115.684C104.285 116.322 105.618 116.789 106.99 117.082C108.363 117.361 109.772 117.513 111.191 117.481C112.611 117.452 114.034 117.263 115.472 116.941C114.197 117.687 112.741 118.136 111.257 118.324C109.768 118.52 108.24 118.451 106.762 118.14C106.027 117.959 105.299 117.756 104.6 117.466C103.908 117.162 103.224 116.84 102.601 116.409C101.337 115.59 100.243 114.504 99.5078 113.225Z" fill="#C0C3CA"/>
<path d="M109.808 115.181C115.496 115.181 120.108 111.366 120.108 106.66C120.108 101.953 115.496 98.1377 109.808 98.1377C104.119 98.1377 99.5078 101.953 99.5078 106.66C99.5078 111.366 104.119 115.181 109.808 115.181Z" fill="#FEC200"/>
<path d="M109.806 115.725C103.827 115.725 98.9629 111.658 98.9629 106.66C98.9629 101.662 103.827 97.5947 109.806 97.5947C115.786 97.5947 120.65 101.662 120.65 106.66C120.65 111.658 115.786 115.725 109.806 115.725ZM109.806 98.6776C104.424 98.6776 100.049 102.256 100.049 106.656C100.049 111.057 104.428 114.635 109.806 114.635C115.188 114.635 119.563 111.057 119.563 106.656C119.563 102.256 115.188 98.6776 109.806 98.6776Z" fill="black"/>
<path d="M140.02 130.896C147.308 130.896 153.217 126.008 153.217 119.977C153.217 113.946 147.308 109.058 140.02 109.058C132.731 109.058 126.822 113.946 126.822 119.977C126.822 126.008 132.731 130.896 140.02 130.896Z" fill="#60767C"/>
<path d="M140.02 131.441C132.443 131.441 126.279 126.298 126.279 119.978C126.279 113.658 132.443 108.516 140.02 108.516C147.597 108.516 153.761 113.658 153.761 119.978C153.764 126.298 147.597 131.441 140.02 131.441ZM140.02 109.602C133.041 109.602 127.366 114.256 127.366 119.978C127.366 125.701 133.045 130.354 140.02 130.354C146.995 130.354 152.674 125.701 152.674 119.978C152.678 114.256 146.999 109.602 140.02 109.602Z" fill="black"/>
<path d="M140.011 126.1C145.7 126.1 150.311 122.285 150.311 117.578C150.311 112.872 145.7 109.057 140.011 109.057C134.322 109.057 129.711 112.872 129.711 117.578C129.711 122.285 134.322 126.1 140.011 126.1Z" fill="#4EEB57"/>
<path d="M140.011 126.648C134.032 126.648 129.168 122.581 129.168 117.579C129.168 112.581 134.032 108.514 140.011 108.514C145.991 108.514 150.855 112.581 150.855 117.579C150.858 122.581 145.991 126.648 140.011 126.648ZM140.011 109.601C134.629 109.601 130.254 113.179 130.254 117.579C130.254 121.98 134.633 125.561 140.011 125.561C145.393 125.561 149.768 121.983 149.768 117.579C149.772 113.179 145.393 109.601 140.011 109.601Z" fill="black"/>
<path d="M129.711 124.146C130.797 125.141 131.967 125.964 133.228 126.605C134.488 127.242 135.821 127.709 137.193 128.003C138.566 128.281 139.975 128.434 141.394 128.401C142.814 128.372 144.238 128.184 145.675 127.861C144.4 128.607 142.945 129.057 141.46 129.245C139.971 129.44 138.443 129.372 136.965 129.06C136.23 128.879 135.502 128.676 134.803 128.386C134.111 128.082 133.427 127.76 132.804 127.329C131.544 126.514 130.446 125.428 129.711 124.146Z" fill="#C0C3CA"/>
<path d="M52.5857 107.885C59.0263 107.885 64.2475 102.664 64.2475 96.2229C64.2475 89.7822 59.0263 84.561 52.5857 84.561C46.145 84.561 40.9238 89.7822 40.9238 96.2229C40.9238 102.664 46.145 107.885 52.5857 107.885Z" fill="#F06B85"/>
<path d="M52.584 108.424C45.8549 108.424 40.3789 102.948 40.3789 96.2188C40.3789 89.4897 45.8549 84.0137 52.584 84.0137C59.3131 84.0137 64.7891 89.4897 64.7891 96.2188C64.7891 102.948 59.3131 108.424 52.584 108.424ZM52.584 85.1038C46.4525 85.1038 41.4654 90.0909 41.4654 96.2224C41.4654 102.354 46.4525 107.341 52.584 107.341C58.7155 107.341 63.7026 102.354 63.7026 96.2224C63.7026 90.0909 58.7155 85.1038 52.584 85.1038Z" fill="black"/>
<path d="M203.563 134.46C203.331 134.21 203.099 133.978 202.889 133.768C201.629 132.497 201.194 130.914 200.886 129.154C200.416 126.481 200.666 100.546 200.666 98.3044C200.666 94.0381 197.207 90.583 192.944 90.583C188.681 90.583 185.223 94.0417 185.223 98.3044V131.023C185.223 135.137 185.708 140.012 188.736 143.108C189.532 143.923 190.514 144.666 191.571 145.107C193.846 146.06 196.464 144.064 195.747 141.609C196.461 142.152 197.066 142.688 198.069 142.688C199.688 142.688 201.002 141.374 201.002 139.755C201.002 139.476 200.963 139.208 200.89 138.954C201.328 139.327 201.897 139.555 202.52 139.555C203.501 139.555 204.399 138.954 204.82 138.071C205.439 136.763 204.497 135.463 203.563 134.46Z" fill="#6379A2"/>
<path d="M192.772 145.89C192.294 145.89 191.816 145.8 191.363 145.608C190.049 145.057 188.998 144.152 188.347 143.486C185.058 140.121 184.678 134.761 184.678 131.02V98.3015C184.678 93.7418 188.386 90.0332 192.942 90.0332C197.499 90.0332 201.207 93.7418 201.207 98.3015C201.207 98.6311 201.203 99.4677 201.193 100.666C201.153 107.135 201.026 126.822 201.421 129.057C201.747 130.9 202.17 132.269 203.275 133.381L203.34 133.446C203.536 133.642 203.75 133.856 203.96 134.087C204.912 135.112 206.086 136.662 205.307 138.299C204.789 139.39 203.692 140.096 202.515 140.096C202.181 140.096 201.848 140.041 201.537 139.933C201.443 141.765 199.921 143.229 198.063 143.229C197.383 143.229 196.854 143.022 196.39 142.743C196.311 143.569 195.923 144.34 195.257 144.934C194.569 145.561 193.67 145.89 192.772 145.89ZM192.946 91.1233C188.988 91.1233 185.768 94.343 185.768 98.3051V131.023C185.768 134.573 186.116 139.647 189.129 142.729C189.708 143.323 190.639 144.127 191.787 144.608C192.707 144.992 193.79 144.808 194.543 144.13C195.239 143.507 195.488 142.645 195.231 141.762L194.768 140.175L196.256 141.309C196.861 141.776 197.339 142.142 198.074 142.142C199.393 142.142 200.465 141.07 200.465 139.752C200.465 139.534 200.432 139.317 200.371 139.1L199.882 137.379L201.243 138.538C201.602 138.843 202.055 139.009 202.522 139.009C203.282 139.009 203.992 138.549 204.333 137.832C204.713 137.028 204.358 136.101 203.17 134.826C202.967 134.605 202.761 134.402 202.576 134.214L202.511 134.149C201.066 132.693 200.642 130.853 200.356 129.245C199.987 127.155 200.041 111.93 200.113 100.659C200.121 99.4641 200.128 98.6275 200.128 98.3015C200.124 94.343 196.905 91.1233 192.946 91.1233Z" fill="black"/>
<path d="M193.613 137.882C193.874 139.041 194.461 140.468 195.754 141.554L193.613 137.882Z" fill="#6379A2"/>
<path d="M195.753 142.098C195.63 142.098 195.506 142.055 195.405 141.972C194.257 141.008 193.453 139.636 193.084 138.002C193.018 137.709 193.199 137.419 193.493 137.354C193.783 137.289 194.076 137.47 194.141 137.763C194.463 139.183 195.123 140.317 196.1 141.139C196.329 141.331 196.361 141.675 196.169 141.903C196.061 142.033 195.905 142.098 195.753 142.098Z" fill="black"/>
<path d="M200.503 138.549C200.503 138.549 199.333 137.506 199.127 135.677L200.503 138.549Z" fill="#6379A2"/>
<path d="M200.503 139.092C200.377 139.092 200.246 139.045 200.145 138.954C200.091 138.907 198.819 137.748 198.591 135.738C198.559 135.441 198.772 135.17 199.069 135.137C199.366 135.104 199.638 135.318 199.67 135.615C199.852 137.198 200.862 138.132 200.873 138.143C201.094 138.346 201.112 138.686 200.913 138.911C200.8 139.03 200.652 139.092 200.503 139.092Z" fill="black"/>
<path d="M132.295 30.4885L122.143 32.781C121.071 33.0237 120.003 32.35 119.76 31.2744L119.587 30.5102C119.344 29.4382 120.018 28.3698 121.093 28.1271L131.245 25.8346C132.317 25.592 133.385 26.2656 133.628 27.3412L133.802 28.1054C134.044 29.1774 133.371 30.2458 132.295 30.4885Z" fill="white"/>
<path d="M96.1021 35.9041L85.8745 33.981C84.7916 33.7782 84.0818 32.7352 84.2846 31.6523L84.4294 30.8808C84.6323 29.798 85.6753 29.0881 86.7582 29.2909L96.9858 31.214C98.0687 31.4169 98.7786 32.4599 98.5757 33.5428L98.4309 34.3142C98.2281 35.3971 97.185 36.1069 96.1021 35.9041Z" fill="white"/>
<path d="M101.631 65.8657C106.643 63.4066 113.698 62.4215 119.453 61.306C122.927 60.6323 126.429 61.277 126.248 64.0222C125.737 71.8559 108.519 75.177 100.928 70.889C98.3642 69.4403 98.7481 67.2818 101.631 65.8657Z" fill="white"/>
<path d="M133.852 53.0304C133.71 53.0304 133.566 53.0123 133.421 52.9797L125.891 51.1399C124.2 50.727 122.863 49.4232 122.411 47.7427C121.958 46.0587 122.454 44.2623 123.711 43.0527L123.841 42.9259L131.545 38.0294C132.388 37.4934 133.508 37.7433 134.044 38.5871C134.58 39.431 134.33 40.5501 133.486 41.0861L126.123 45.7653C125.786 46.1709 125.855 46.6128 125.906 46.7975C125.96 46.9967 126.148 47.4747 126.75 47.6196L134.279 49.4594C135.25 49.6985 135.847 50.6763 135.608 51.6469C135.405 52.4763 134.667 53.0304 133.852 53.0304Z" fill="white"/>
<path d="M92.416 59.7559C96.4524 59.7559 99.7245 55.1833 99.7245 49.5427C99.7245 43.9022 96.4524 39.3296 92.416 39.3296C88.3796 39.3296 85.1074 43.9022 85.1074 49.5427C85.1074 55.1833 88.3796 59.7559 92.416 59.7559Z" fill="white"/>
<path d="M39.9766 22.2339V16.1304L0.00146866 16.1304V22.2339L39.9766 22.2339Z" fill="#D8B41D"/>
<path d="M20 37.8135C31.0457 37.8135 39.9999 30.6057 39.9999 21.7144C39.9999 12.8231 31.0457 5.61523 20 5.61523C8.95429 5.61523 0 12.8231 0 21.7144C0 30.6057 8.95429 37.8135 20 37.8135Z" fill="#D8B41D"/>
<mask id="mask0_272_7864" style="mask-type:alpha" maskUnits="userSpaceOnUse" x="0" y="5" width="40" height="33">
<path d="M20 37.8135C31.0457 37.8135 39.9999 30.6057 39.9999 21.7144C39.9999 12.8231 31.0457 5.61523 20 5.61523C8.95429 5.61523 0 12.8231 0 21.7144C0 30.6057 8.95429 37.8135 20 37.8135Z" fill="#D8B41D"/>
</mask>
<g mask="url(#mask0_272_7864)">
<path d="M0.521849 17.7114H-1.13672V39.2217H0.521849V17.7114Z" fill="#B29310"/>
<path d="M3.90271 17.7114H2.24414V39.2217H3.90271V17.7114Z" fill="#B29310"/>
<path d="M7.29138 17.7114H5.63281V39.2217H7.29138V17.7114Z" fill="#B29310"/>
<path d="M10.6781 17.7114H9.01953V39.2217H10.6781V17.7114Z" fill="#B29310"/>
<path d="M14.0629 17.7114H12.4043V39.2217H14.0629V17.7114Z" fill="#B29310"/>
<path d="M17.4418 17.7114H15.7832V39.2217H17.4418V17.7114Z" fill="#B29310"/>
<path d="M20.8324 17.7114H19.1738V39.2217H20.8324V17.7114Z" fill="#B29310"/>
<path d="M24.2191 17.7114H22.5605V39.2217H24.2191V17.7114Z" fill="#B29310"/>
<path d="M27.6019 17.7114H25.9434V39.2217H27.6019V17.7114Z" fill="#B29310"/>
<path d="M30.9867 17.7114H29.3281V39.2217H30.9867V17.7114Z" fill="#B29310"/>
<path d="M34.3695 17.7114H32.7109V39.2217H34.3695V17.7114Z" fill="#B29310"/>
<path d="M37.7543 17.7114H36.0957V39.2217H37.7543V17.7114Z" fill="#B29310"/>
<path d="M41.1429 17.7114H39.4844V39.2217H41.1429V17.7114Z" fill="#B29310"/>
</g>
<path d="M39.4572 16.9618C39.4572 25.9494 30.8332 33.3808 20 33.3808C9.16676 33.3808 0.542739 25.9494 0.542739 16.9618C0.542739 7.97419 9.16676 0.542739 20 0.542739C30.8332 0.542739 39.4572 7.97419 39.4572 16.9618Z" fill="#FFD833" stroke="#D8B41D" stroke-width="1.08548"/>
<path d="M23.1113 20.6342C23.9277 20.3472 24.5973 19.9317 25.1202 19.3841C25.6394 18.8364 26.0682 18.183 26.4031 17.42C26.7341 16.6571 27.0388 15.7959 27.3172 14.8441C27.622 13.7866 27.8251 12.865 27.9192 12.0832C28.0132 11.3013 27.9492 10.6517 27.7198 10.1305C27.4903 9.60927 27.0539 9.22402 26.4068 8.97096C25.7635 8.7179 24.8418 8.59326 23.6493 8.59326H14.9252C14.6694 8.59326 14.4437 8.76323 14.3722 9.00873L9.53049 25.7671C9.42516 26.1373 9.69978 26.5037 10.0835 26.5037H14.9553C15.2111 26.5037 15.4368 26.3337 15.5083 26.0882L16.9228 21.1895C16.9454 21.1177 17.0094 21.0648 17.0884 21.0648H20.0415C21.2717 21.0648 22.2912 20.9213 23.1113 20.6342ZM18.9882 16.8233H18.1831L19.2966 12.9632C19.3192 12.8915 19.3832 12.8386 19.4622 12.8386H20.1356C20.5155 12.8386 20.809 12.8575 21.0159 12.8915C21.2228 12.9254 21.362 13.0048 21.441 13.1256C21.52 13.2465 21.535 13.4467 21.4899 13.7224C21.4448 14.0019 21.3545 14.372 21.219 14.8404C21.0836 15.3087 20.9595 15.6751 20.8504 15.9319C20.7413 16.1925 20.6096 16.3889 20.4591 16.5173C20.3086 16.6458 20.1205 16.7289 19.8948 16.7628C19.6691 16.8044 19.3681 16.8233 18.9882 16.8233Z" fill="#D8B41D"/>
<path d="M23.011 8.78326L23.7384 10.0827L23.311 11.5131C23.224 11.7897 23.3852 12.0885 23.6698 12.1644L25.1082 12.5709L25.8152 13.8859L25.8151 13.886L25.8203 13.8951C25.9575 14.1352 26.2664 14.2349 26.5228 14.0901L27.8251 13.3631L29.2558 13.7905C29.5323 13.8775 29.8311 13.7164 29.9071 13.4318L30.3135 11.9934L31.6286 11.2864L31.6286 11.2865L31.6378 11.2813C31.8778 11.1441 31.9776 10.8351 31.8328 10.5787L31.1058 9.27639L31.5332 7.84569C31.6202 7.56917 31.459 7.27038 31.1745 7.19443L29.7361 6.788L29.029 5.47296L29.0292 5.4729L29.0239 5.46376C28.8868 5.22369 28.5777 5.12394 28.3213 5.26877L27.0191 5.99578L25.5884 5.56835C25.3119 5.48132 25.0131 5.64254 24.9371 5.92708L24.5307 7.36548L23.2156 8.07249L23.2156 8.07237L23.2064 8.0776C22.9569 8.22021 22.8753 8.52899 23.007 8.77599L23.007 8.77603L23.011 8.78326Z" fill="#D8B41D" stroke="#FFD833" stroke-width="0.814109"/>
<path d="M74.3164 178.524V174.812H50.0017V178.524H74.3164Z" fill="#D8B41D"/>
<path d="M62.1649 188C68.8834 188 74.3299 183.615 74.3299 178.207C74.3299 172.799 68.8834 168.415 62.1649 168.415C55.4464 168.415 50 172.799 50 178.207C50 183.615 55.4464 188 62.1649 188Z" fill="#D8B41D"/>
<mask id="mask1_272_7864" style="mask-type:alpha" maskUnits="userSpaceOnUse" x="50" y="168" width="25" height="20">
<path d="M62.1649 188C68.8834 188 74.3299 183.615 74.3299 178.207C74.3299 172.799 68.8834 168.415 62.1649 168.415C55.4464 168.415 50 172.799 50 178.207C50 183.615 55.4464 188 62.1649 188Z" fill="#D8B41D"/>
</mask>
<g mask="url(#mask1_272_7864)">
<path d="M50.3194 175.772H49.3105V188.856H50.3194V175.772Z" fill="#B29310"/>
<path d="M52.3741 175.772H51.3652V188.856H52.3741V175.772Z" fill="#B29310"/>
<path d="M54.4366 175.772H53.4277V188.856H54.4366V175.772Z" fill="#B29310"/>
<path d="M56.4951 175.772H55.4863V188.856H56.4951V175.772Z" fill="#B29310"/>
<path d="M58.5518 175.772H57.543V188.856H58.5518V175.772Z" fill="#B29310"/>
<path d="M60.6104 175.772H59.6016V188.856H60.6104V175.772Z" fill="#B29310"/>
<path d="M62.669 175.772H61.6602V188.856H62.669V175.772Z" fill="#B29310"/>
<path d="M64.7315 175.772H63.7227V188.856H64.7315V175.772Z" fill="#B29310"/>
<path d="M66.7881 175.772H65.7793V188.856H66.7881V175.772Z" fill="#B29310"/>
<path d="M68.8467 175.772H67.8379V188.856H68.8467V175.772Z" fill="#B29310"/>
<path d="M70.9053 175.772H69.8965V188.856H70.9053V175.772Z" fill="#B29310"/>
<path d="M72.9639 175.772H71.9551V188.856H72.9639V175.772Z" fill="#B29310"/>
<path d="M75.0244 175.772H74.0156V188.856H75.0244V175.772Z" fill="#B29310"/>
</g>
<path d="M73.9997 175.317C73.9997 180.784 68.7542 185.304 62.1649 185.304C55.5757 185.304 50.3301 180.784 50.3301 175.317C50.3301 169.85 55.5757 165.33 62.1649 165.33C68.7542 165.33 73.9997 169.85 73.9997 175.317Z" fill="#FFD833" stroke="#D8B41D" stroke-width="0.660239"/>
<path d="M64.0536 177.55C64.5501 177.376 64.9574 177.123 65.2755 176.79C65.5913 176.457 65.8521 176.059 66.0558 175.595C66.2572 175.131 66.4425 174.608 66.6118 174.029C66.7972 173.385 66.9207 172.825 66.9779 172.349C67.0352 171.874 66.9963 171.479 66.8567 171.162C66.7171 170.845 66.4517 170.61 66.0581 170.456C65.6668 170.302 65.1062 170.227 64.3808 170.227H59.0744C58.9188 170.227 58.7815 170.33 58.738 170.479L55.7931 180.673C55.729 180.898 55.8961 181.121 56.1295 181.121H59.0927C59.2483 181.121 59.3856 181.017 59.4291 180.868L60.2895 177.888C60.3032 177.845 60.3421 177.812 60.3901 177.812H62.1864C62.9346 177.812 63.5548 177.725 64.0536 177.55ZM61.5457 175.232H61.056L61.7333 172.885C61.7471 172.841 61.786 172.809 61.834 172.809H62.2436C62.4747 172.809 62.6532 172.82 62.7791 172.841C62.9049 172.862 62.9896 172.91 63.0376 172.983C63.0857 173.057 63.0948 173.179 63.0674 173.346C63.0399 173.516 62.985 173.741 62.9026 174.026C62.8202 174.311 62.7447 174.534 62.6784 174.69C62.612 174.849 62.5319 174.968 62.4404 175.046C62.3489 175.124 62.2345 175.175 62.0972 175.196C61.9599 175.221 61.7768 175.232 61.5457 175.232Z" fill="#D8B41D"/>
<path d="M63.994 170.342L64.4365 171.133L64.1765 172.003C64.1236 172.171 64.2216 172.353 64.3947 172.399L65.2696 172.646L65.6997 173.446L65.6996 173.446L65.7028 173.452C65.7862 173.598 65.9742 173.658 66.1301 173.57L66.9222 173.128L67.7924 173.388C67.9606 173.441 68.1424 173.343 68.1886 173.17L68.4358 172.295L69.2356 171.865L69.2357 171.865L69.2412 171.862C69.3873 171.778 69.4479 171.59 69.3598 171.434L68.9176 170.642L69.1776 169.772C69.2306 169.604 69.1325 169.422 68.9594 169.376L68.0845 169.129L67.6545 168.329L67.6546 168.329L67.6514 168.323C67.5679 168.177 67.38 168.117 67.224 168.205L66.4319 168.647L65.5617 168.387C65.3935 168.334 65.2118 168.432 65.1656 168.605L64.9184 169.48L64.1185 169.91L64.1185 169.91L64.1129 169.913C63.9611 170 63.9115 170.188 63.9916 170.338L63.9916 170.338L63.994 170.342Z" fill="#D8B41D" stroke="#FFD833" stroke-width="0.49518"/>
<path d="M240.316 21.524V17.8115L216.002 17.8115V21.524L240.316 21.524Z" fill="#D8B41D"/>
<path d="M228.165 30.9995C234.883 30.9995 240.33 26.6154 240.33 21.2073C240.33 15.7992 234.883 11.415 228.165 11.415C221.446 11.415 216 15.7992 216 21.2073C216 26.6154 221.446 30.9995 228.165 30.9995Z" fill="#D8B41D"/>
<mask id="mask2_272_7864" style="mask-type:alpha" maskUnits="userSpaceOnUse" x="216" y="11" width="25" height="20">
<path d="M228.165 30.9995C234.883 30.9995 240.33 26.6154 240.33 21.2073C240.33 15.7992 234.883 11.415 228.165 11.415C221.446 11.415 216 15.7992 216 21.2073C216 26.6154 221.446 30.9995 228.165 30.9995Z" fill="#D8B41D"/>
</mask>
<g mask="url(#mask2_272_7864)">
<path d="M216.319 18.7725H215.311V31.856H216.319V18.7725Z" fill="#B29310"/>
<path d="M218.374 18.7725H217.365V31.856H218.374V18.7725Z" fill="#B29310"/>
<path d="M220.437 18.7725H219.428V31.856H220.437V18.7725Z" fill="#B29310"/>
<path d="M222.495 18.7725H221.486V31.856H222.495V18.7725Z" fill="#B29310"/>
<path d="M224.552 18.7725H223.543V31.856H224.552V18.7725Z" fill="#B29310"/>
<path d="M226.61 18.7725H225.602V31.856H226.61V18.7725Z" fill="#B29310"/>
<path d="M228.669 18.7725H227.66V31.856H228.669V18.7725Z" fill="#B29310"/>
<path d="M230.731 18.7725H229.723V31.856H230.731V18.7725Z" fill="#B29310"/>
<path d="M232.788 18.7725H231.779V31.856H232.788V18.7725Z" fill="#B29310"/>
<path d="M234.847 18.7725H233.838V31.856H234.847V18.7725Z" fill="#B29310"/>
<path d="M236.905 18.7725H235.896V31.856H236.905V18.7725Z" fill="#B29310"/>
<path d="M238.964 18.7725H237.955V31.856H238.964V18.7725Z" fill="#B29310"/>
<path d="M241.024 18.7725H240.016V31.856H241.024V18.7725Z" fill="#B29310"/>
</g>
<path d="M240 18.317C240 23.7836 234.754 28.3038 228.165 28.3038C221.576 28.3038 216.33 23.7836 216.33 18.317C216.33 12.8503 221.576 8.33012 228.165 8.33012C234.754 8.33012 240 12.8503 240 18.317Z" fill="#FFD833" stroke="#D8B41D" stroke-width="0.660239"/>
<path d="M230.054 20.5505C230.55 20.3759 230.957 20.1232 231.276 19.79C231.591 19.4569 231.852 19.0595 232.056 18.5954C232.257 18.1314 232.443 17.6076 232.612 17.0286C232.797 16.3854 232.921 15.8248 232.978 15.3493C233.035 14.8737 232.996 14.4786 232.857 14.1616C232.717 13.8445 232.452 13.6102 232.058 13.4563C231.667 13.3024 231.106 13.2266 230.381 13.2266H225.074C224.919 13.2266 224.782 13.3299 224.738 13.4793L221.793 23.6725C221.729 23.8977 221.896 24.1205 222.129 24.1205H225.093C225.248 24.1205 225.386 24.0171 225.429 23.8678L226.289 20.8882C226.303 20.8445 226.342 20.8124 226.39 20.8124H228.186C228.935 20.8124 229.555 20.7251 230.054 20.5505ZM227.546 18.2324H227.056L227.733 15.8846C227.747 15.8409 227.786 15.8088 227.834 15.8088H228.244C228.475 15.8088 228.653 15.8203 228.779 15.8409C228.905 15.8616 228.99 15.9098 229.038 15.9834C229.086 16.0569 229.095 16.1786 229.067 16.3463C229.04 16.5163 228.985 16.7415 228.903 17.0264C228.82 17.3112 228.745 17.5341 228.678 17.6903C228.612 17.8488 228.532 17.9683 228.44 18.0464C228.349 18.1245 228.234 18.175 228.097 18.1957C227.96 18.221 227.777 18.2324 227.546 18.2324Z" fill="#D8B41D"/>
<path d="M229.994 13.3424L230.436 14.1328L230.177 15.0029C230.124 15.1711 230.222 15.3528 230.395 15.399L231.27 15.6462L231.7 16.4461L231.7 16.4461L231.703 16.4517C231.786 16.5977 231.974 16.6584 232.13 16.5703L232.922 16.1281L233.792 16.3881C233.961 16.441 234.142 16.3429 234.189 16.1699L234.436 15.295L235.236 14.8649L235.236 14.865L235.241 14.8618C235.387 14.7784 235.448 14.5904 235.36 14.4345L234.918 13.6424L235.178 12.7722C235.231 12.604 235.133 12.4222 234.959 12.376L234.085 12.1288L233.654 11.3289L233.655 11.3289L233.651 11.3233C233.568 11.1773 233.38 11.1167 233.224 11.2047L232.432 11.6469L231.562 11.387C231.394 11.334 231.212 11.4321 231.166 11.6052L230.918 12.4801L230.118 12.9101L230.118 12.91L230.113 12.9132C229.961 13 229.911 13.1878 229.992 13.338L229.992 13.338L229.994 13.3424Z" fill="#D8B41D" stroke="#FFD833" stroke-width="0.49518"/>
</svg>
