<svg width="17" height="17" viewBox="0 0 17 17" fill="none" xmlns="http://www.w3.org/2000/svg">
<path fill-rule="evenodd" clip-rule="evenodd" d="M8.5 17C13.1944 17 17 13.1944 17 8.5C17 3.80558 13.1944 0 8.5 0C3.80558 0 0 3.80558 0 8.5C0 9.75625 0.272525 10.9488 0.761679 12.0219L2.08949 10.2455C2.46332 9.7454 3.16936 9.63789 3.67512 10.0041L5.92323 11.6318L10.5819 5.6672L5.60167 6.27942C5.18402 6.33076 4.80383 6.03381 4.75249 5.61617C4.70115 5.19852 4.9981 4.81834 5.41574 4.76699L12.2217 3.93034C12.6393 3.879 13.0195 4.17595 13.0708 4.59359L13.9075 11.3995C13.9588 11.8172 13.6619 12.1973 13.2442 12.2487C12.8266 12.3 12.4464 12.0031 12.3951 11.5854L11.7828 6.60517L6.89803 12.8593C6.51947 13.344 5.82524 13.4422 5.32711 13.0815L3.08537 11.4584L1.59287 13.4551C3.13567 15.6018 5.65456 17 8.5 17Z" fill="#373737"/>
</svg>
