<svg width="18" height="18" viewBox="0 0 18 18" fill="none" xmlns="http://www.w3.org/2000/svg">
<path fill-rule="evenodd" clip-rule="evenodd" d="M9 18C13.9706 18 18 13.9706 18 9C18 4.02944 13.9706 0 9 0C4.02944 0 0 4.02944 0 9C0 10.3482 0.296456 11.6272 0.827737 12.7753L2.26141 10.8573C2.63525 10.3572 3.34128 10.2497 3.84704 10.6159L6.28027 12.3777L11.3062 5.94286L6.32595 6.55508C5.90831 6.60642 5.52812 6.30948 5.47678 5.89183C5.42544 5.47419 5.72239 5.094 6.14003 5.04266L12.9459 4.20601C13.3636 4.15467 13.7438 4.45161 13.7951 4.86926L14.6318 11.6752C14.6831 12.0928 14.3862 12.473 13.9685 12.5243C13.5509 12.5757 13.1707 12.2787 13.1193 11.8611L12.5071 6.88084L7.25508 13.6051C6.87652 14.0898 6.18229 14.188 5.68415 13.8273L3.25729 12.0702L1.65917 14.2082C3.2902 16.5029 5.97027 18 9 18Z" fill="white"/>
</svg>
