<svg width="26" height="24" viewBox="0 0 26 24" fill="none" xmlns="http://www.w3.org/2000/svg">
<path d="M25.4922 14.1118V10.2378L0.119705 10.2378V14.1118L25.4922 14.1118Z" fill="#D8B41D"/>
<path d="M12.8113 23.9999C19.8221 23.9999 25.5054 19.4251 25.5054 13.7817C25.5054 8.13833 19.8221 3.56348 12.8113 3.56348C5.80054 3.56348 0.117188 8.13833 0.117188 13.7817C0.117188 19.4251 5.80054 23.9999 12.8113 23.9999Z" fill="#D8B41D"/>
<mask id="mask0_435_7349" style="mask-type:alpha" maskUnits="userSpaceOnUse" x="0" y="3" width="26" height="21">
<path d="M12.8113 23.9999C19.8221 23.9999 25.5054 19.4251 25.5054 13.7817C25.5054 8.13833 19.8221 3.56348 12.8113 3.56348C5.80054 3.56348 0.117188 8.13833 0.117188 13.7817C0.117188 19.4251 5.80054 23.9999 12.8113 23.9999Z" fill="#D8B41D"/>
</mask>
<g mask="url(#mask0_435_7349)">
<path d="M0.447236 11.2417H-0.605469V24.8944H0.447236V11.2417Z" fill="#B29310"/>
<path d="M2.59567 11.2417H1.54297V24.8944H2.59567V11.2417Z" fill="#B29310"/>
<path d="M4.74411 11.2417H3.69141V24.8944H4.74411V11.2417Z" fill="#B29310"/>
<path d="M6.8945 11.2417H5.8418V24.8944H6.8945V11.2417Z" fill="#B29310"/>
<path d="M9.04099 11.2417H7.98828V24.8944H9.04099V11.2417Z" fill="#B29310"/>
<path d="M11.1894 11.2417H10.1367V24.8944H11.1894V11.2417Z" fill="#B29310"/>
<path d="M13.3398 11.2417H12.2871V24.8944H13.3398V11.2417Z" fill="#B29310"/>
<path d="M15.4883 11.2417H14.4355V24.8944H15.4883V11.2417Z" fill="#B29310"/>
<path d="M17.6347 11.2417H16.582V24.8944H17.6347V11.2417Z" fill="#B29310"/>
<path d="M19.7851 11.2417H18.7324V24.8944H19.7851V11.2417Z" fill="#B29310"/>
<path d="M21.9316 11.2417H20.8789V24.8944H21.9316V11.2417Z" fill="#B29310"/>
<path d="M24.082 11.2417H23.0293V24.8944H24.082V11.2417Z" fill="#B29310"/>
<path d="M26.2304 11.2417H25.1777V24.8944H26.2304V11.2417Z" fill="#B29310"/>
</g>
<path d="M25.161 10.7658C25.161 16.4702 19.6872 21.187 12.8113 21.187C5.9354 21.187 0.461668 16.4702 0.461668 10.7658C0.461668 5.06128 5.9354 0.34448 12.8113 0.34448C19.6872 0.34448 25.161 5.06128 25.161 10.7658Z" fill="#FFD833" stroke="#D8B41D" stroke-width="0.688961"/>
<path d="M14.7807 13.0971C15.2989 12.9149 15.7239 12.6512 16.0558 12.3036C16.3853 11.956 16.6575 11.5413 16.87 11.057C17.0801 10.5728 17.2736 10.0262 17.4503 9.42207C17.6437 8.75084 17.7726 8.1659 17.8323 7.66967C17.892 7.17343 17.8514 6.7611 17.7057 6.43028C17.5601 6.09946 17.2831 5.85493 16.8724 5.69432C16.4641 5.5337 15.8791 5.45459 15.1222 5.45459H9.58494C9.42257 5.45459 9.27931 5.56247 9.23394 5.71829L6.16088 16.355C6.09402 16.5899 6.26833 16.8224 6.51188 16.8224H9.60404C9.76641 16.8224 9.90968 16.7146 9.95505 16.5587L10.8528 13.4495C10.8672 13.4039 10.9078 13.3704 10.9579 13.3704H12.8323C13.6131 13.3704 14.2602 13.2793 14.7807 13.0971ZM12.1637 10.6782H11.6528L12.3595 8.22823C12.3739 8.18268 12.4144 8.14912 12.4646 8.14912H12.892C13.1332 8.14912 13.3194 8.16111 13.4507 8.18268C13.5821 8.20426 13.6704 8.2546 13.7206 8.33131C13.7707 8.40803 13.7803 8.53508 13.7516 8.71008C13.7229 8.88748 13.6656 9.12241 13.5797 9.41968C13.4937 9.71694 13.4149 9.94947 13.3457 10.1125C13.2764 10.2779 13.1929 10.4026 13.0974 10.4841C13.0018 10.5656 12.8825 10.6183 12.7392 10.6399C12.5959 10.6663 12.4049 10.6782 12.1637 10.6782Z" fill="#D8B41D"/>
<path d="M14.7135 5.57486L15.1752 6.3996L14.904 7.30753C14.8487 7.48304 14.951 7.6727 15.1316 7.72091L16.0446 7.97887L16.4934 8.81354L16.4933 8.81358L16.4966 8.81938C16.5837 8.97178 16.7799 9.03509 16.9426 8.9431L17.7691 8.4817L18.6771 8.75299C18.8527 8.80824 19.0423 8.70592 19.0905 8.52531L19.3485 7.61234L20.1832 7.1636L20.1832 7.16367L20.189 7.16036C20.3414 7.07328 20.4047 6.87715 20.3128 6.7144L19.8513 5.88785L20.1226 4.9798C20.1779 4.80429 20.0755 4.61463 19.8949 4.56642L18.982 4.30845L18.5332 3.47379L18.5333 3.47375L18.53 3.46795C18.4429 3.31557 18.2468 3.25226 18.084 3.34419L17.2575 3.80562L16.3494 3.53433C16.1739 3.47909 15.9842 3.58142 15.936 3.76203L15.6781 4.67498L14.8434 5.12373L14.8434 5.12365L14.8376 5.12697C14.6792 5.21748 14.6274 5.41347 14.711 5.57024L14.711 5.57027L14.7135 5.57486Z" fill="#D8B41D" stroke="#FFD833" stroke-width="0.516721"/>
</svg>
