<svg width="23" height="23" viewBox="0 0 23 23" fill="none" xmlns="http://www.w3.org/2000/svg">
<path d="M15.9315 0.671897C16.0743 0.604439 16.2442 0.673988 16.2986 0.822199L17.9029 5.18623C17.9304 5.26098 17.9896 5.31969 18.0645 5.34655L22.4417 6.91467C22.5903 6.96793 22.6613 7.13724 22.595 7.28056L20.6436 11.5008C20.6101 11.5731 20.6105 11.6564 20.6445 11.7284L22.6308 15.9324C22.6982 16.0752 22.6287 16.245 22.4805 16.2995L18.1164 17.9038C18.0417 17.9313 17.983 17.9905 17.9561 18.0654L16.388 22.4426C16.3347 22.5912 16.1654 22.6622 16.0221 22.5959L11.8019 20.6444C11.7296 20.611 11.6462 20.6114 11.5742 20.6454L7.3703 22.6317C7.22752 22.6991 7.05763 22.6296 7.00315 22.4814L5.3989 18.1173C5.37142 18.0426 5.31222 17.9839 5.23725 17.957L0.860106 16.3889C0.711449 16.3356 0.640498 16.1663 0.706773 16.023L2.65823 11.8028C2.69166 11.7305 2.69131 11.6471 2.65729 11.5751L0.671014 7.37118C0.603556 7.22841 0.673105 7.05852 0.821316 7.00403L5.18535 5.39978C5.26009 5.3723 5.31881 5.3131 5.34567 5.23813L6.91379 0.860989C6.96705 0.712333 7.13635 0.641381 7.27968 0.707656L11.4999 2.65912C11.5722 2.69254 11.6556 2.6922 11.7276 2.65818L15.9315 0.671897Z" fill="#A54CE5"/>
</svg>
