<svg width="33" height="34" viewBox="0 0 33 34" fill="none" xmlns="http://www.w3.org/2000/svg">
<path d="M0 26.8953V29.6475C0 31.9227 5.54297 33.7725 12.375 33.7725C19.207 33.7725 24.75 31.9227 24.75 29.6475V26.8953C22.0881 28.7709 17.2219 29.6475 12.375 29.6475C7.52813 29.6475 2.66191 28.7709 0 26.8953ZM20.625 9.02246C27.457 9.02246 33 7.17266 33 4.89746C33 2.62227 27.457 0.772461 20.625 0.772461C13.793 0.772461 8.25 2.62227 8.25 4.89746C8.25 7.17266 13.793 9.02246 20.625 9.02246ZM0 20.1342V23.46C0 25.7352 5.54297 27.585 12.375 27.585C19.207 27.585 24.75 25.7352 24.75 23.46V20.1342C22.0881 22.3256 17.2154 23.46 12.375 23.46C7.53457 23.46 2.66191 22.3256 0 20.1342ZM26.8125 20.8432C30.5057 20.1277 33 18.8 33 17.2725V14.5203C31.5047 15.5773 29.3068 16.2992 26.8125 16.7439V20.8432ZM12.375 11.085C5.54297 11.085 0 13.3924 0 16.2412C0 19.09 5.54297 21.3975 12.375 21.3975C19.207 21.3975 24.75 19.09 24.75 16.2412C24.75 13.3924 19.207 11.085 12.375 11.085ZM26.5096 14.7137C30.3768 14.0176 33 12.6512 33 11.085V8.33281C30.7119 9.95059 26.7803 10.8207 22.6424 11.027C24.5437 11.9486 25.9424 13.1861 26.5096 14.7137Z" fill="#A54CE5"/>
</svg>
