<svg width="33" height="34" viewBox="0 0 33 34" fill="none" xmlns="http://www.w3.org/2000/svg">
<path d="M0 26.2693V29.0215C0 31.2967 5.54297 33.1465 12.375 33.1465C19.207 33.1465 24.75 31.2967 24.75 29.0215V26.2693C22.0881 28.1449 17.2219 29.0215 12.375 29.0215C7.52813 29.0215 2.66191 28.1449 0 26.2693ZM20.625 8.39648C27.457 8.39648 33 6.54668 33 4.27148C33 1.99629 27.457 0.146484 20.625 0.146484C13.793 0.146484 8.25 1.99629 8.25 4.27148C8.25 6.54668 13.793 8.39648 20.625 8.39648ZM0 19.5082V22.834C0 25.1092 5.54297 26.959 12.375 26.959C19.207 26.959 24.75 25.1092 24.75 22.834V19.5082C22.0881 21.6996 17.2154 22.834 12.375 22.834C7.53457 22.834 2.66191 21.6996 0 19.5082ZM26.8125 20.2172C30.5057 19.5018 33 18.174 33 16.6465V13.8943C31.5047 14.9514 29.3068 15.6732 26.8125 16.118V20.2172ZM12.375 10.459C5.54297 10.459 0 12.7664 0 15.6152C0 18.4641 5.54297 20.7715 12.375 20.7715C19.207 20.7715 24.75 18.4641 24.75 15.6152C24.75 12.7664 19.207 10.459 12.375 10.459ZM26.5096 14.0877C30.3768 13.3916 33 12.0252 33 10.459V7.70684C30.7119 9.32461 26.7803 10.1947 22.6424 10.401C24.5437 11.3227 25.9424 12.5602 26.5096 14.0877Z" fill="#949494"/>
</svg>
