<svg width="24" height="24" viewBox="0 0 24 24" fill="none" xmlns="http://www.w3.org/2000/svg">
<path d="M21.8182 7.63556C22.3968 7.63556 22.9518 7.86544 23.361 8.27463C23.7701 8.68382 24 9.2388 24 9.81749V14.1813C24 14.76 23.7701 15.315 23.361 15.7242C22.9518 16.1334 22.3968 16.3633 21.8182 16.3633H20.6596C20.3937 18.4724 19.3672 20.412 17.7728 21.8181C16.1784 23.2241 14.1258 24 12 24V21.8181C13.736 21.8181 15.4008 21.1284 16.6283 19.9009C17.8558 18.6733 18.5455 17.0083 18.5455 15.2723V8.72653C18.5455 6.99048 17.8558 5.32553 16.6283 4.09796C15.4008 2.87039 13.736 2.18075 12 2.18075C10.264 2.18075 8.59918 2.87039 7.37167 4.09796C6.14415 5.32553 5.45455 6.99048 5.45455 8.72653V16.3633H2.18182C1.60316 16.3633 1.04821 16.1334 0.63904 15.7242C0.22987 15.315 0 14.76 0 14.1813V9.81749C0 9.2388 0.22987 8.68382 0.63904 8.27463C1.04821 7.86544 1.60316 7.63556 2.18182 7.63556H3.34036C3.60658 5.52662 4.63318 3.5873 6.22753 2.18149C7.82189 0.775677 9.87442 0 12 0C14.1256 0 16.1781 0.775677 17.7725 2.18149C19.3668 3.5873 20.3934 5.52662 20.6596 7.63556H21.8182ZM7.37455 16.1287L8.53091 14.2784C9.57063 14.9298 10.7731 15.2743 12 15.2723C13.2269 15.2743 14.4294 14.9298 15.4691 14.2784L16.6255 16.1287C15.2392 16.9973 13.6359 17.4567 12 17.4542C10.3641 17.4567 8.76081 16.9973 7.37455 16.1287Z" fill="#A54CE5"/>
</svg>
