<svg width="24" height="20" viewBox="0 0 24 20" fill="none" xmlns="http://www.w3.org/2000/svg">
<path d="M7.60929e-09 5.51815L11.6225 11.4854C11.7391 11.5452 11.8686 11.5765 12 11.5765C12.1314 11.5765 12.2609 11.5452 12.3775 11.4854L24 5.51923V15.8846C24.0001 16.7786 23.6536 17.6387 23.0316 18.2886C22.4097 18.9384 21.5594 19.3286 20.6553 19.3792L20.4545 19.3846H3.54545C2.63985 19.3847 1.76855 19.0426 1.11029 18.4287C0.452037 17.8147 0.0567258 16.9753 0.00545468 16.0828L7.60929e-09 15.8846V5.51815ZM3.54545 7.51174e-09H20.4545C21.3602 -5.85272e-05 22.2315 0.341981 22.8897 0.955954C23.548 1.56993 23.9433 2.40929 23.9945 3.30185L24 3.5V3.69815L12 9.85815L7.60929e-09 3.69815V3.5C-5.92873e-05 2.60601 0.346423 1.74588 0.968369 1.09606C1.59032 0.446241 2.44058 0.0559986 3.34473 0.00538475L3.54545 7.51174e-09H20.4545H3.54545Z" fill="#A54CE5"/>
</svg>
