<svg width="60" height="60" viewBox="0 0 60 60" fill="none" xmlns="http://www.w3.org/2000/svg">
<path d="M60 48.2828C60 49.6296 59.5286 50.7744 58.5859 51.7172L51.7172 58.5859C50.7744 59.5286 49.6296 60 48.2828 60C46.936 60 45.7912 59.5286 44.8485 58.5859L30 43.7374L15.1515 58.5859C14.2088 59.5286 13.064 60 11.7172 60C10.3704 60 9.22559 59.5286 8.28283 58.5859L1.41414 51.7172C0.471381 50.7744 0 49.6296 0 48.2828C0 46.936 0.471381 45.7912 1.41414 44.8485L16.2626 30L1.41414 15.1515C0.471381 14.2088 0 13.064 0 11.7172C0 10.3704 0.471381 9.22559 1.41414 8.28283L8.28283 1.41414C9.22559 0.471381 10.3704 0 11.7172 0C13.064 0 14.2088 0.471381 15.1515 1.41414L30 16.2626L44.8485 1.41414C45.7912 0.471381 46.936 0 48.2828 0C49.6296 0 50.7744 0.471381 51.7172 1.41414L58.5859 8.28283C59.5286 9.22559 60 10.3704 60 11.7172C60 13.064 59.5286 14.2088 58.5859 15.1515L43.7374 30L58.5859 44.8485C59.5286 45.7912 60 46.936 60 48.2828Z" fill="#FF4567"/>
</svg>
