<svg width="17" height="21" viewBox="0 0 17 21" fill="none" xmlns="http://www.w3.org/2000/svg">
<path fill-rule="evenodd" clip-rule="evenodd" d="M10.5063 0.843962C10.4579 0.29799 10.0185 -0.139581 9.50839 0.0415282C7.23919 0.839997 3.71442 4.06163 5.8816 8.44131C6.33151 9.35215 6.25435 10.0515 5.88552 10.4243C5.33751 10.9782 3.87136 11.0681 3.21742 9.32438C2.99115 8.72421 2.35552 8.31705 1.86375 8.72421C0.701031 9.68396 0 11.3523 0 13.0682C0 17.7109 3.92106 21 8.49869 21C13.0763 21 17 17.6951 17 13.0682C17 10.2432 15.5247 8.75858 13.9761 7.2013C12.4198 5.63609 10.7901 3.99553 10.5063 0.84264V0.843962Z" fill="white"/>
</svg>
