<svg width="25" height="25" viewBox="0 0 25 25" fill="none" xmlns="http://www.w3.org/2000/svg">
<path d="M12.666 24.3458C6.03842 24.3458 0.666016 18.896 0.666016 12.1729C0.666016 5.4498 6.03842 0 12.666 0C19.2936 0 24.666 5.4498 24.666 12.1729C24.666 18.896 19.2936 24.3458 12.666 24.3458ZM11.466 15.8247V18.2593H13.866V15.8247H11.466ZM13.866 13.8223C14.8304 13.5274 15.6583 12.891 16.199 12.0289C16.7397 11.1668 16.9571 10.1364 16.8117 9.12536C16.6663 8.11429 16.1677 7.18984 15.4068 6.52035C14.6459 5.85086 13.6733 5.48088 12.666 5.47779C11.695 5.47772 10.754 5.81882 10.003 6.44309C9.25192 7.06737 8.73723 7.93626 8.54642 8.90202L10.9008 9.38042C10.9676 9.04132 11.128 8.72844 11.3633 8.47818C11.5985 8.22793 11.899 8.05058 12.2297 7.96679C12.5605 7.88299 12.9079 7.89619 13.2315 8.00485C13.5551 8.1135 13.8417 8.31315 14.0578 8.58055C14.274 8.84796 14.4108 9.17213 14.4524 9.51535C14.4941 9.85856 14.4387 10.2067 14.2929 10.5193C14.1471 10.8319 13.9168 11.096 13.6288 11.281C13.3408 11.466 13.0069 11.5642 12.666 11.5642C12.3478 11.5642 12.0425 11.6925 11.8175 11.9208C11.5924 12.1491 11.466 12.4587 11.466 12.7815V14.6075H13.866V13.8223Z" fill="#A54CE5"/>
</svg>
