<svg width="17" height="17" viewBox="0 0 17 17" fill="none" xmlns="http://www.w3.org/2000/svg">
<path fill-rule="evenodd" clip-rule="evenodd" d="M17 8.5C17 13.1944 13.1944 17 8.5 17C3.80558 17 0 13.1944 0 8.5C0 3.80558 3.80558 0 8.5 0C13.1944 0 17 3.80558 17 8.5ZM6.5214 9.83986V12.5323L8.07206 11.4985C8.33118 11.3258 8.66876 11.3258 8.92789 11.4985L10.4785 12.5323V9.83986C10.0002 10.1239 9.35075 10.3464 8.49997 10.3464C7.6492 10.3464 6.99973 10.1239 6.5214 9.83986ZM11.4688 8.89331C11.964 8.25664 12.2589 7.45646 12.2589 6.5874C12.2589 4.5114 10.576 2.82847 8.5 2.82847C6.424 2.82847 4.74107 4.5114 4.74107 6.5874C4.74107 7.45645 5.03599 8.25661 5.5312 8.89328C5.44725 9.00666 5.37855 9.15982 5.37855 9.34721V13.2263C5.37855 13.8424 6.06523 14.2099 6.57789 13.8682L8.49997 12.5868L10.4221 13.8682C10.9347 14.2099 11.6214 13.8424 11.6214 13.2263V9.34721C11.6214 9.15984 11.5527 9.00669 11.4688 8.89331ZM5.88393 6.5874C5.88393 5.14259 7.05518 3.97133 8.5 3.97133C9.94482 3.97133 11.1161 5.14259 11.1161 6.5874C11.1161 8.03222 9.94482 9.20347 8.5 9.20347C7.05518 9.20347 5.88393 8.03222 5.88393 6.5874Z" fill="white"/>
</svg>
