<svg width="32" height="33" viewBox="0 0 32 33" fill="none" xmlns="http://www.w3.org/2000/svg">
<path fill-rule="evenodd" clip-rule="evenodd" d="M30.5814 32.2706C30.9042 31.9493 31.0856 31.5135 31.0856 31.0591V13.0518C31.0858 12.7907 31.026 12.533 30.9109 12.2984C30.7957 12.0638 30.6282 11.8585 30.4211 11.6982L16.6482 1.03775C16.346 0.803784 15.974 0.676758 15.5912 0.676758C15.2083 0.676758 14.8363 0.803784 14.5341 1.03775L0.761221 11.6982C0.554146 11.8585 0.386624 12.0638 0.271451 12.2984C0.156277 12.533 0.0964985 12.7907 0.0966801 13.0518V31.0591C0.0966801 31.5135 0.278064 31.9493 0.600928 32.2706C0.923792 32.5919 1.36169 32.7725 1.81829 32.7725H12.2723V21.7043H18.9128V32.7725H29.364C29.8206 32.7725 30.2585 32.5919 30.5814 32.2706Z" fill="#A54CE5"/>
</svg>
