<svg width="32" height="33" viewBox="0 0 32 33" fill="none" xmlns="http://www.w3.org/2000/svg">
<path fill-rule="evenodd" clip-rule="evenodd" d="M30.5814 31.7208C30.9042 31.3995 31.0856 30.9637 31.0856 30.5093V12.502C31.0858 12.2409 31.026 11.9832 30.9109 11.7486C30.7957 11.514 30.6282 11.3087 30.4211 11.1484L16.6482 0.487946C16.346 0.25398 15.974 0.126953 15.5912 0.126953C15.2083 0.126953 14.8363 0.25398 14.5341 0.487946L0.761221 11.1484C0.554146 11.3087 0.386624 11.514 0.271451 11.7486C0.156277 11.9832 0.0964985 12.2409 0.0966801 12.502V30.5093C0.0966801 30.9637 0.278064 31.3995 0.600928 31.7208C0.923792 32.0421 1.36169 32.2227 1.81829 32.2227H12.2723V21.1545H18.9128V32.2227H29.364C29.8206 32.2227 30.2585 32.0421 30.5814 31.7208Z" fill="#949494"/>
</svg>
