<svg width="39" height="20" viewBox="0 0 39 20" fill="none" xmlns="http://www.w3.org/2000/svg">
<path d="M6.88861 6.94036C7.302 6.79556 7.6411 6.586 7.90589 6.30975C8.16879 6.0335 8.38596 5.70391 8.55551 5.31906C8.72315 4.93422 8.87745 4.49984 9.01843 4.01974C9.17273 3.4863 9.2756 3.02144 9.32323 2.62707C9.37085 2.2327 9.33847 1.90501 9.22226 1.6421C9.10606 1.37919 8.88507 1.18486 8.55741 1.05722C8.23165 0.92957 7.76492 0.866699 7.16103 0.866699H2.74329C2.61374 0.866699 2.49944 0.952431 2.46325 1.07627L0.011486 9.52947C-0.0418546 9.71618 0.097212 9.90098 0.291524 9.90098H2.75853C2.88807 9.90098 3.00237 9.81525 3.03856 9.69141L3.75485 7.22041C3.76628 7.18422 3.79867 7.15754 3.83867 7.15754H5.33412C5.95706 7.15754 6.47332 7.08515 6.88861 6.94036ZM4.80071 5.01805H4.39303L4.95692 3.07097C4.96835 3.03477 5.00074 3.0081 5.04074 3.0081H5.38174C5.57415 3.0081 5.72274 3.01763 5.82752 3.03477C5.93229 3.05192 6.00278 3.09193 6.04278 3.15289C6.08279 3.21386 6.09041 3.31483 6.06755 3.45391C6.04469 3.59489 5.99897 3.7816 5.93039 4.01784C5.86181 4.25408 5.79894 4.43888 5.74369 4.56843C5.68845 4.69989 5.62177 4.79895 5.54557 4.86373C5.46937 4.9285 5.37412 4.97042 5.25982 4.98757C5.14552 5.00852 4.99312 5.01805 4.80071 5.01805Z" fill="white"/>
<path d="M8.38073 9.90303H10.8477C10.9773 9.90303 11.0916 9.81729 11.1278 9.69346L11.9393 6.89668H12.5165C12.5299 6.89668 12.5432 6.89668 12.5546 6.89668L12.5851 9.61725C12.587 9.77729 12.7166 9.90493 12.8766 9.90493H15.4255C15.595 9.90493 15.7284 9.76014 15.7151 9.59249L15.4826 6.53089C15.8294 6.36514 16.1132 6.15367 16.3342 5.90028C16.5571 5.64689 16.74 5.35159 16.8866 5.01438C17.0333 4.67717 17.1648 4.30376 17.2848 3.89224C17.4315 3.38547 17.5286 2.93966 17.5725 2.55863C17.6163 2.17759 17.5801 1.86324 17.4601 1.61367C17.34 1.36409 17.1114 1.17929 16.7743 1.05545C16.4371 0.933524 15.9665 0.872559 15.3626 0.872559H10.8287C10.6991 0.872559 10.5848 0.958291 10.5486 1.08213L8.10069 9.52961C8.04735 9.71632 8.18642 9.90303 8.38073 9.90303ZM13.0652 3.00824H13.6043C13.8234 3.00824 13.9891 3.01968 14.0996 3.04063C14.212 3.06349 14.2844 3.1035 14.3187 3.16637C14.353 3.22734 14.3568 3.31879 14.3301 3.44262C14.3034 3.56455 14.2596 3.73221 14.1987 3.94177C14.1358 4.16087 14.0767 4.33424 14.0215 4.45998C13.9662 4.58762 13.9015 4.67907 13.8234 4.73623C13.7453 4.79338 13.6481 4.82767 13.53 4.84101C13.4119 4.85435 13.2614 4.86006 13.0785 4.86006H12.528L13.0652 3.00824Z" fill="white"/>
<path d="M16.8485 9.9031H19.3327C19.4622 9.9031 19.5765 9.81737 19.6127 9.69353L20.8567 5.38786C20.9005 5.23355 20.8129 5.07351 20.6586 5.02779L18.3687 4.35717C18.2144 4.31145 18.0525 4.40099 18.0068 4.55531L16.5685 9.53159C16.5151 9.71639 16.6561 9.9031 16.8485 9.9031Z" fill="white"/>
<path d="M23.2181 3.06057H25.3917C25.6527 3.06057 25.7822 3.37682 25.5955 3.55972L21.3683 7.73583C21.3321 7.77013 21.3073 7.81394 21.294 7.86157L20.8101 9.5305C20.7568 9.7172 20.8959 9.902 21.0902 9.902H27.613C27.7425 9.902 27.8568 9.81627 27.893 9.69243L28.3597 8.08257C28.4131 7.89587 28.274 7.71107 28.0797 7.71107H25.7232C25.4622 7.71107 25.3327 7.39481 25.5193 7.21191L29.8171 2.97102C29.8533 2.93673 29.878 2.89291 29.8914 2.84528L30.3562 1.24114C30.4095 1.05443 30.2705 0.869629 30.0762 0.869629H23.6829C23.5534 0.869629 23.4391 0.955361 23.4029 1.0792L22.9361 2.68906C22.8828 2.87386 23.0238 3.06057 23.2181 3.06057Z" fill="white"/>
<path d="M29.1372 9.90263H35.1495C35.279 9.90263 35.3933 9.8169 35.4295 9.69307L35.8962 8.0832C35.9496 7.8965 35.8105 7.7117 35.6162 7.7117H32.833C32.6386 7.7117 32.4996 7.52499 32.5529 7.34019L32.7606 6.62194C32.7968 6.49811 32.9111 6.41238 33.0406 6.41238H35.5438C35.6733 6.41238 35.7876 6.32664 35.8238 6.20281L36.2753 4.64439C36.3287 4.45768 36.1896 4.27288 35.9953 4.27288H33.8293C33.635 4.27288 33.4959 4.08617 33.5492 3.90137L33.7302 3.27648C33.7664 3.15265 33.8807 3.06691 34.0103 3.06691H37.1307C37.2602 3.06691 37.3745 2.98118 37.4107 2.85734L37.8775 1.24748C37.9308 1.06078 37.7917 0.875977 37.5974 0.875977H31.5852C31.4556 0.875977 31.3413 0.961709 31.3051 1.08554L28.8534 9.53684C28.8038 9.71593 28.9448 9.90263 29.1372 9.90263Z" fill="white"/>
<path d="M14.163 14.1169C14.3173 13.5835 14.4202 13.1186 14.4678 12.7242C14.5154 12.3299 14.483 12.0022 14.3668 11.7393C14.2506 11.4764 14.0297 11.282 13.702 11.1544C13.3762 11.0267 12.9095 10.9639 12.3056 10.9639H7.88977C7.76023 10.9639 7.64593 11.0496 7.60973 11.1734L5.15797 19.6266C5.10463 19.8133 5.2437 19.9981 5.43801 19.9981H7.90501C8.03455 19.9981 8.14885 19.9124 8.18505 19.7886L8.92039 17.2547H10.4825C11.1035 17.2547 11.6217 17.1823 12.0351 17.0375C12.4485 16.8927 12.7876 16.6832 13.0524 16.4069C13.3153 16.1307 13.5324 15.8011 13.702 15.4162C13.8677 15.0333 14.022 14.5989 14.163 14.1169ZM11.214 13.553C11.1912 13.694 11.1455 13.8807 11.0769 14.1169C11.0083 14.3531 10.9454 14.538 10.8902 14.6675C10.8349 14.799 10.7683 14.898 10.6921 14.9628C10.6159 15.0276 10.5206 15.0695 10.4063 15.0866C10.292 15.1038 10.1377 15.1133 9.94529 15.1133H9.53761L10.1205 13.1034H10.5282C10.7206 13.1034 10.8692 13.1129 10.974 13.13C11.0788 13.1472 11.1493 13.1872 11.1893 13.2482C11.2293 13.3129 11.2369 13.412 11.214 13.553Z" fill="white"/>
<path d="M19.9249 17.6891H17.2921L19.1343 11.3373C19.1876 11.1506 19.0486 10.9658 18.8543 10.9658H16.3892C16.2596 10.9658 16.1453 11.0516 16.1091 11.1754L13.6574 19.6286C13.604 19.8153 13.7431 20.0001 13.9374 20.0001H19.4239C19.5534 20.0001 19.6677 19.9144 19.7039 19.7905L20.2049 18.0625C20.2583 17.8758 20.1192 17.6891 19.9249 17.6891Z" fill="white"/>
<path d="M29.1754 10.9658H25.373C25.2682 10.9658 25.1711 11.023 25.1196 11.1125L20.3228 19.5657C20.2123 19.76 20.3533 20.0001 20.5761 20.0001H22.8793C22.9879 20.0001 23.087 19.9391 23.1365 19.8439L23.7613 18.6474H26.375L26.3255 19.6953C26.3179 19.861 26.4493 20.0001 26.617 20.0001H29.0706C29.2307 20.0001 29.3602 19.8725 29.3621 19.7124L29.4669 11.2592C29.4688 11.0992 29.3392 10.9658 29.1754 10.9658ZM26.4741 16.546H24.872L26.5103 13.433H26.6284L26.4741 16.546Z" fill="white"/>
<path d="M38.6099 10.9658H36.2915C36.1943 10.9658 36.1029 11.0154 36.0476 11.0973L33.914 14.3284H33.8226L33.5711 11.2344C33.5597 11.0839 33.432 10.9658 33.2815 10.9658H30.7726C30.5916 10.9658 30.4545 11.1297 30.485 11.3068L31.5003 17.0852L30.7631 19.6286C30.7098 19.8153 30.8488 20.0001 31.0431 20.0001H33.5101C33.6397 20.0001 33.754 19.9144 33.7902 19.7905L34.575 17.0852L38.8423 11.4326C38.9871 11.2402 38.8499 10.9658 38.6099 10.9658Z" fill="white"/>
<path d="M18.6864 2.17916C18.694 2.1925 18.6959 2.20774 18.6902 2.22107L18.4597 2.99266C18.4502 3.02124 18.4673 3.05363 18.4978 3.06125L19.2731 3.28034C19.2865 3.28415 19.2998 3.29368 19.3074 3.30702L19.6884 4.01574C19.7037 4.04241 19.7361 4.05193 19.7627 4.03669L20.4657 3.64423C20.479 3.63661 20.4943 3.6347 20.5076 3.64042L21.2791 3.87094C21.3077 3.88047 21.3401 3.86332 21.3477 3.83284L21.5668 3.05744C21.5706 3.0422 21.5801 3.03077 21.5935 3.02315L22.3021 2.64211C22.3288 2.62687 22.3383 2.59448 22.3231 2.56781L21.9306 1.86481C21.923 1.85147 21.9211 1.83623 21.9268 1.82289L22.1573 1.0513C22.1669 1.02273 22.1497 0.990338 22.1192 0.982717L21.3439 0.763623C21.3306 0.759813 21.3172 0.750287 21.3096 0.736951L20.9286 0.0282307C20.9134 0.0015584 20.881 -0.00796742 20.8543 0.00727388L20.1514 0.399737C20.138 0.407358 20.1228 0.409263 20.1094 0.403548L19.3379 0.173023C19.3093 0.163497 19.2769 0.180644 19.2693 0.211126L19.0502 0.986527C19.0464 1.00177 19.0369 1.0132 19.0236 1.02082L18.3149 1.40185C18.2882 1.41709 18.2787 1.44948 18.294 1.47806L18.6864 2.17916Z" fill="#FFD833"/>
</svg>
