<svg width="75" height="39" viewBox="0 0 75 39" fill="none" xmlns="http://www.w3.org/2000/svg">
<path d="M13.2809 13.3804C14.0779 13.1012 14.7317 12.6972 15.2422 12.1646C15.7491 11.632 16.1678 10.9966 16.4946 10.2546C16.8179 9.51266 17.1153 8.6752 17.3871 7.74959C17.6846 6.72113 17.883 5.8249 17.9748 5.06457C18.0666 4.30425 18.0042 3.67248 17.7801 3.16559C17.5561 2.65871 17.13 2.28406 16.4983 2.03796C15.8703 1.79187 14.9704 1.67065 13.8062 1.67065H5.28894C5.03919 1.67065 4.81882 1.83594 4.74904 2.07469L0.0221446 18.3721C-0.0806938 18.7321 0.18742 19.0884 0.562046 19.0884H5.31832C5.56807 19.0884 5.78844 18.9231 5.85822 18.6843L7.23919 13.9203C7.26123 13.8506 7.32367 13.7991 7.4008 13.7991H10.2839C11.4849 13.7991 12.4803 13.6596 13.2809 13.3804ZM9.25556 9.67428H8.46958L9.55673 5.9204C9.57877 5.85061 9.6412 5.79919 9.71833 5.79919H10.3758C10.7467 5.79919 11.0332 5.81755 11.2352 5.85061C11.4372 5.88367 11.5731 5.9608 11.6502 6.07834C11.7274 6.19588 11.742 6.39055 11.698 6.65868C11.6539 6.93049 11.5657 7.29045 11.4335 7.74591C11.3013 8.20137 11.1801 8.55766 11.0736 8.80743C10.9671 9.06087 10.8385 9.25187 10.6916 9.37676C10.5447 9.50164 10.3611 9.58245 10.1407 9.61551C9.92034 9.65591 9.62651 9.67428 9.25556 9.67428Z" fill="#2E2E2E"/>
<path d="M16.1568 19.092H20.913C21.1628 19.092 21.3832 18.9267 21.4529 18.688L23.0176 13.2959H24.1304C24.1561 13.2959 24.1818 13.2959 24.2039 13.2959L24.2626 18.541C24.2663 18.8496 24.5161 19.0957 24.8246 19.0957H29.7388C30.0657 19.0957 30.3228 18.8165 30.297 18.4933L29.849 12.5907C30.5174 12.2711 31.0647 11.8634 31.4907 11.3749C31.9204 10.8864 32.273 10.317 32.5558 9.6669C32.8386 9.01676 33.0921 8.29684 33.3234 7.50346C33.6062 6.52642 33.7936 5.66692 33.878 4.93231C33.9625 4.19769 33.8927 3.59164 33.6613 3.11046C33.4299 2.62929 32.9892 2.273 32.3391 2.03426C31.689 1.79918 30.7819 1.68164 29.6176 1.68164H20.8763C20.6266 1.68164 20.4062 1.84693 20.3364 2.08568L15.6169 18.3721C15.514 18.732 15.7821 19.092 16.1568 19.092ZM25.1882 5.79915H26.2276C26.65 5.79915 26.9695 5.82119 27.1825 5.86159C27.3992 5.90567 27.5388 5.98281 27.6049 6.10402C27.671 6.22156 27.6783 6.39786 27.6269 6.63661C27.5755 6.87169 27.491 7.19492 27.3735 7.59896C27.2523 8.02136 27.1384 8.35561 27.0319 8.59803C26.9254 8.84413 26.8005 9.02044 26.65 9.13063C26.4994 9.24082 26.3121 9.30693 26.0843 9.33265C25.8566 9.35836 25.5665 9.36938 25.2139 9.36938H24.1525L25.1882 5.79915Z" fill="#2E2E2E"/>
<path d="M32.483 19.0921H37.2723C37.5221 19.0921 37.7424 18.9268 37.8122 18.688L40.2106 10.3869C40.295 10.0894 40.1261 9.78084 39.8286 9.69268L35.4139 8.39976C35.1164 8.31161 34.8042 8.48424 34.716 8.78176L31.9431 18.3758C31.8402 18.7321 32.112 19.0921 32.483 19.0921Z" fill="#2E2E2E"/>
<path d="M44.7634 5.90177H48.9541C49.4573 5.90177 49.707 6.5115 49.3471 6.86411L41.1972 14.9155C41.1274 14.9816 41.0796 15.0661 41.0539 15.1579L40.121 18.3755C40.0182 18.7355 40.2863 19.0918 40.6609 19.0918H53.2366C53.4863 19.0918 53.7067 18.9265 53.7765 18.6877L54.6763 15.584C54.7792 15.224 54.511 14.8677 54.1364 14.8677H49.5932C49.09 14.8677 48.8402 14.258 49.2002 13.9054L57.486 5.72913C57.5558 5.66302 57.6035 5.57854 57.6293 5.48671L58.5254 2.39398C58.6283 2.03402 58.3601 1.67773 57.9855 1.67773H45.6596C45.4099 1.67773 45.1895 1.84302 45.1197 2.08177L44.2199 5.18552C44.117 5.5418 44.3888 5.90177 44.7634 5.90177Z" fill="#2E2E2E"/>
<path d="M56.1747 19.0922H67.766C68.0158 19.0922 68.2361 18.9269 68.3059 18.6882L69.2057 15.5844C69.3086 15.2245 69.0405 14.8682 68.6658 14.8682H63.2999C62.9253 14.8682 62.6571 14.5082 62.76 14.1519L63.1603 12.7672C63.2301 12.5284 63.4505 12.3632 63.7002 12.3632H68.5263C68.776 12.3632 68.9964 12.1979 69.0662 11.9591L69.9366 8.95454C70.0395 8.59458 69.7714 8.23829 69.3967 8.23829H65.2208C64.8461 8.23829 64.578 7.87833 64.6809 7.52204L65.0298 6.31728C65.0996 6.07853 65.3199 5.91324 65.5697 5.91324H71.5857C71.8355 5.91324 72.0558 5.74795 72.1256 5.5092L73.0255 2.40546C73.1283 2.0455 72.8602 1.68921 72.4856 1.68921H60.8942C60.6445 1.68921 60.4241 1.8545 60.3543 2.09325L55.6274 18.387C55.5319 18.7323 55.8037 19.0922 56.1747 19.0922Z" fill="#2E2E2E"/>
<path d="M27.3056 27.2171C27.6031 26.1887 27.8014 25.2924 27.8932 24.5321C27.9851 23.7718 27.9226 23.14 27.6986 22.6331C27.4745 22.1262 27.0485 21.7516 26.4168 21.5055C25.7887 21.2594 24.8889 21.1382 23.7246 21.1382H15.2111C14.9613 21.1382 14.7409 21.3035 14.6712 21.5422L9.94426 37.8396C9.84143 38.1996 10.1095 38.5559 10.4842 38.5559H15.2404C15.4902 38.5559 15.7106 38.3906 15.7803 38.1518L17.198 33.2667H20.2097C21.4071 33.2667 22.4061 33.1271 23.2031 32.8479C24.0001 32.5688 24.6538 32.1647 25.1643 31.6321C25.6712 31.0996 26.0899 30.4641 26.4168 29.7222C26.7363 28.9839 27.0338 28.1464 27.3056 27.2171ZM21.6201 26.1299C21.576 26.4017 21.4879 26.7617 21.3556 27.2171C21.2234 27.6726 21.1022 28.0289 20.9957 28.2786C20.8892 28.5321 20.7607 28.7231 20.6137 28.848C20.4668 28.9728 20.2832 29.0537 20.0628 29.0867C19.8425 29.1198 19.545 29.1381 19.174 29.1381H18.388L19.5119 25.263H20.2979C20.6688 25.263 20.9553 25.2814 21.1573 25.3145C21.3593 25.3475 21.4952 25.4247 21.5723 25.5422C21.6495 25.6671 21.6642 25.8581 21.6201 26.1299Z" fill="#2E2E2E"/>
<path d="M38.4142 34.1041H33.3384L36.89 21.8581C36.9929 21.4981 36.7248 21.1418 36.3501 21.1418H31.5975C31.3478 21.1418 31.1274 21.3071 31.0576 21.5459L26.3307 37.8433C26.2279 38.2033 26.496 38.5595 26.8706 38.5595H37.4483C37.698 38.5595 37.9184 38.3943 37.9882 38.1555L38.9541 34.824C39.057 34.4641 38.7889 34.1041 38.4142 34.1041Z" fill="#2E2E2E"/>
<path d="M56.249 21.1416H48.9181C48.7161 21.1416 48.5288 21.2518 48.4297 21.4244L39.1815 37.7218C38.9685 38.0965 39.2403 38.5593 39.67 38.5593H44.1104C44.3198 38.5593 44.5108 38.4418 44.6063 38.2581L45.8109 35.9514H50.85L50.7545 37.9716C50.7398 38.2912 50.9933 38.5593 51.3165 38.5593H56.047C56.3556 38.5593 56.6053 38.3132 56.609 38.0047L56.811 21.7073C56.8146 21.3987 56.5649 21.1416 56.249 21.1416ZM51.041 31.9H47.9522L51.1108 25.8982H51.3385L51.041 31.9Z" fill="#2E2E2E"/>
<path d="M74.4376 21.1418H69.9678C69.7805 21.1418 69.6042 21.2373 69.4977 21.3953L65.3841 27.6248H65.2078L64.723 21.6597C64.701 21.3696 64.4549 21.1418 64.1648 21.1418H59.3277C58.9788 21.1418 58.7143 21.4577 58.7731 21.7993L60.7307 32.9397L59.3093 37.8433C59.2065 38.2033 59.4746 38.5595 59.8492 38.5595H64.6055C64.8552 38.5595 65.0756 38.3943 65.1454 38.1555L66.6586 32.9397L74.8857 22.0417C75.1648 21.6708 74.9004 21.1418 74.4376 21.1418Z" fill="#2E2E2E"/>
<path d="M36.0282 4.20132C36.0429 4.22704 36.0466 4.25642 36.0355 4.28213L35.5911 5.76972C35.5728 5.82482 35.6058 5.88726 35.6646 5.90196L37.1594 6.32436C37.1851 6.3317 37.2108 6.35007 37.2255 6.37578L37.9601 7.74216C37.9895 7.79359 38.0519 7.81195 38.1033 7.78257L39.4586 7.02592C39.4843 7.01122 39.5137 7.00755 39.5394 7.01857L41.0269 7.46301C41.082 7.48138 41.1444 7.44832 41.1591 7.38955L41.5815 5.89461C41.5888 5.86523 41.6072 5.84319 41.6329 5.82849L42.9992 5.09388C43.0506 5.0645 43.0689 5.00205 43.0396 4.95063L42.283 3.59527C42.2683 3.56956 42.2646 3.54017 42.2756 3.51446L42.72 2.02687C42.7384 1.97177 42.7053 1.90933 42.6466 1.89464L41.1517 1.47223C41.126 1.46489 41.1003 1.44652 41.0856 1.42081L40.3511 0.0544275C40.3217 0.00300452 40.2593 -0.0153608 40.2078 0.0140237L38.8526 0.770676C38.8269 0.785369 38.7975 0.789042 38.7718 0.778022L37.2843 0.333581C37.2292 0.315215 37.1668 0.348273 37.1521 0.407042L36.7297 1.90198C36.7223 1.93137 36.704 1.9534 36.6783 1.9681L35.312 2.70271C35.2606 2.7321 35.2422 2.79454 35.2716 2.84963L36.0282 4.20132Z" fill="#FFDD50"/>
</svg>
