<svg width="19" height="23" viewBox="0 0 19 23" fill="none" xmlns="http://www.w3.org/2000/svg">
<path fill-rule="evenodd" clip-rule="evenodd" d="M0 9.22784C0 14.3641 5.55053 23 9.5 23C13.4495 23 19 14.3641 19 9.22784C19 4.13637 14.7516 0 9.5 0C4.2484 0 0 4.13637 0 9.22784ZM9.5 6.05263C10.3399 6.05263 11.1453 6.37147 11.7392 6.93902C12.333 7.50656 12.6667 8.27632 12.6667 9.07895C12.6667 9.88158 12.333 10.6513 11.7392 11.2189C11.1453 11.7864 10.3399 12.1053 9.5 12.1053C8.66015 12.1053 7.85469 11.7864 7.26083 11.2189C6.66696 10.6513 6.33333 9.88158 6.33333 9.07895C6.33333 8.27632 6.66696 7.50656 7.26083 6.93902C7.85469 6.37147 8.66015 6.05263 9.5 6.05263Z" fill="#A54CE5"/>
</svg>
