<svg width="23" height="24" viewBox="0 0 23 24" fill="none" xmlns="http://www.w3.org/2000/svg">
<path d="M22.7091 19.4551L22.4581 19.2336C21.746 18.5992 21.1228 17.8717 20.6052 17.0707C20.0399 15.9653 19.7011 14.7581 19.6087 13.52V9.87332C19.6135 7.92864 18.9081 6.0491 17.6249 4.58784C16.3418 3.12659 14.5691 2.18421 12.6401 1.93775V0.985487C12.6401 0.724119 12.5363 0.473457 12.3515 0.288642C12.1667 0.103828 11.916 0 11.6546 0C11.3933 0 11.1426 0.103828 10.9578 0.288642C10.773 0.473457 10.6692 0.724119 10.6692 0.985487V1.95252C8.75742 2.21674 7.00622 3.16482 5.73989 4.62116C4.47357 6.07751 3.77793 7.94342 3.78182 9.87332V13.52C3.68936 14.7581 3.35055 15.9653 2.78526 17.0707C2.27656 17.8697 1.66335 18.5971 0.961923 19.2336L0.710938 19.4551V21.5368H22.7091V19.4551Z" fill="#A54CE5"/>
<path d="M9.76758 22.312C9.83231 22.7799 10.0642 23.2086 10.4204 23.5189C10.7765 23.8292 11.233 24.0001 11.7053 24.0001C12.1777 24.0001 12.6341 23.8292 12.9903 23.5189C13.3465 23.2086 13.5784 22.7799 13.6431 22.312H9.76758Z" fill="#A54CE5"/>
</svg>
