<svg width="55" height="56" viewBox="0 0 55 56" fill="none" xmlns="http://www.w3.org/2000/svg">
<path d="M37.4905 6.39646C37.7801 6.25961 38.1248 6.4007 38.2353 6.70138L41.6931 16.1075C41.7725 16.3237 41.9792 16.4666 42.2095 16.4647L51.1684 16.3894C51.4418 16.3871 51.6746 16.5876 51.713 16.8583L52.1602 20.0191C52.1749 20.1231 52.1593 20.2291 52.1152 20.3244L47.6978 29.8775C47.6158 30.0549 47.6349 30.2626 47.748 30.4219L51.7694 36.0903C51.8235 36.1666 51.8571 36.2555 51.8669 36.3485L52.2204 39.689C52.2467 39.9375 52.1008 40.172 51.8663 40.2582L42.1782 43.8196C42.0266 43.8754 41.9075 43.9955 41.853 44.1476L38.4296 53.7035C38.3215 54.005 37.9781 54.149 37.6873 54.0145L28.474 49.7542C28.3274 49.6864 28.1582 49.6871 28.0122 49.7561L18.8344 54.0924C18.5447 54.2293 18.2001 54.0882 18.0896 53.7875L14.5873 44.2602C14.5315 44.1086 14.4114 43.9895 14.2593 43.935L4.50123 40.4392C4.28559 40.3619 4.1412 40.1581 4.13982 39.9291L4.11935 36.5291C4.11862 36.4075 4.15858 36.2891 4.23289 36.1927L8.55579 30.5889C8.68092 30.4267 8.70459 30.2081 8.61708 30.0229L4.11079 20.4854C4.07715 20.4142 4.05933 20.3365 4.05855 20.2578L4.02779 17.1493C4.02479 16.8464 4.26923 16.5991 4.57215 16.5986L14.0027 16.582C14.2326 16.5816 14.4376 16.437 14.5151 16.2206L17.8953 6.78545C18.0033 6.48387 18.3468 6.33993 18.6376 6.47438L27.8509 10.7347C27.9975 10.8025 28.1667 10.8018 28.3127 10.7328L37.4905 6.39646Z" fill="#1BA95D"/>
<path d="M28.3977 7.69859L37.4182 3.43657L40.8605 12.8006C40.9883 13.1481 41.2635 13.4211 41.612 13.5459L51.0042 16.9107L46.8169 25.9662C46.6615 26.3022 46.6631 26.6898 46.8213 27.0246L51.0833 36.0451L41.7192 39.4874C41.3718 39.6151 41.0988 39.8904 40.9739 40.2389L37.6092 49.6311L28.5537 45.4438C28.2177 45.2884 27.83 45.29 27.4953 45.4482L18.4748 49.7102L15.0325 40.3461C14.9047 39.9986 14.6295 39.7257 14.2809 39.6008L4.88877 36.236L9.07608 27.1806C9.23147 26.8445 9.22987 26.4569 9.0717 26.1222L4.80968 17.1016L14.1737 13.6593C14.5212 13.5316 14.7942 13.2564 14.9191 12.9078L18.2838 3.51565L27.3393 7.70297C27.6753 7.85835 28.0629 7.85675 28.3977 7.69859Z" fill="#43FC98" stroke="#1BA95D" stroke-width="1.40881"/>
<g opacity="0.7">
<path d="M32.2716 30.5228C33.2221 30.1898 34.0017 29.7078 34.6105 29.0724C35.215 28.437 35.7143 27.6789 36.1041 26.7937C36.4895 25.9085 36.8443 24.9094 37.1684 23.8051C37.5232 22.5781 37.7597 21.5089 37.8692 20.6018C37.9787 19.6947 37.9043 18.941 37.6371 18.3362C37.3699 17.7315 36.8618 17.2845 36.1085 16.9909C35.3595 16.6973 34.2864 16.5527 32.898 16.5527H22.7409C22.443 16.5527 22.1802 16.7499 22.097 17.0348L16.46 36.4781C16.3374 36.9075 16.6571 37.3326 17.1039 37.3326H22.7759C23.0737 37.3326 23.3365 37.1354 23.4197 36.8506L25.0666 31.167C25.0929 31.0837 25.1673 31.0224 25.2593 31.0224H28.6976C30.1298 31.0224 31.3168 30.8559 32.2716 30.5228ZM27.4712 26.1013H26.5339L27.8304 21.6228C27.8566 21.5396 27.9311 21.4782 28.0231 21.4782H28.8071C29.2495 21.4782 29.5911 21.5001 29.832 21.5396C30.0729 21.579 30.235 21.671 30.3269 21.8112C30.4189 21.9515 30.4364 22.1837 30.3839 22.5036C30.3313 22.8279 30.2262 23.2573 30.0685 23.8007C29.9108 24.3441 29.7663 24.7692 29.6393 25.0671C29.5123 25.3695 29.359 25.5974 29.1838 25.7464C29.0086 25.8954 28.7896 25.9918 28.5268 26.0312C28.264 26.0794 27.9136 26.1013 27.4712 26.1013Z" fill="#1BA95D"/>
<path d="M32.1902 16.9883L32.9939 18.4239L32.5218 20.0038C32.4123 20.3527 32.6155 20.729 32.974 20.825L34.5627 21.2739L35.3438 22.7268L35.3437 22.7269L35.3505 22.7387C35.5232 23.041 35.9129 23.1671 36.2364 22.9845L37.6751 22.1814L39.2553 22.6535C39.6041 22.763 39.9805 22.5598 40.0765 22.2013L40.5254 20.6126L41.9782 19.8315L41.9783 19.8316L41.9902 19.8248C42.2925 19.6521 42.4186 19.2623 42.236 18.9389L41.4328 17.5002L41.9049 15.92C42.0144 15.5711 41.8113 15.1948 41.4527 15.0988L39.864 14.6499L39.0829 13.1971L39.0831 13.197L39.0763 13.1851C38.9036 12.8828 38.5138 12.7567 38.1904 12.9393L36.7517 13.7425L35.1715 13.2704C34.8226 13.1609 34.4463 13.364 34.3503 13.7226L33.9014 15.3113L32.4485 16.0924L32.4484 16.0922L32.4366 16.099C32.122 16.2788 32.0194 16.6682 32.1851 16.9789L32.185 16.9789L32.1902 16.9883Z" fill="#1BA95D" stroke="#43FC98" stroke-width="1.0566"/>
</g>
</svg>
