<svg width="21" height="25" viewBox="0 0 21 25" fill="none" xmlns="http://www.w3.org/2000/svg">
<path d="M17.1429 8.05388H19.4286C19.7317 8.05388 20.0224 8.17509 20.2367 8.39087C20.451 8.60664 20.5714 8.89928 20.5714 9.20443V23.0111C20.5714 23.3162 20.451 23.6089 20.2367 23.8246C20.0224 24.0404 19.7317 24.1616 19.4286 24.1616H1.14286C0.839752 24.1616 0.549062 24.0404 0.334735 23.8246C0.120408 23.6089 0 23.3162 0 23.0111V9.20443C0 8.89928 0.120408 8.60664 0.334735 8.39087C0.549062 8.17509 0.839752 8.05388 1.14286 8.05388H3.42857V6.90332C3.42857 5.07245 4.15102 3.31656 5.43698 2.02194C6.72295 0.727312 8.46709 0 10.2857 0C12.1043 0 13.8485 0.727312 15.1344 2.02194C16.4204 3.31656 17.1429 5.07245 17.1429 6.90332V8.05388ZM9.14286 16.95V19.5594H11.4286V16.95C11.8643 16.6967 12.2049 16.3057 12.3974 15.8377C12.59 15.3697 12.6238 14.8509 12.4935 14.3616C12.3633 13.8723 12.0764 13.4399 11.6772 13.1315C11.278 12.8232 10.7889 12.656 10.2857 12.656C9.78255 12.656 9.29345 12.8232 8.89426 13.1315C8.49507 13.4399 8.20811 13.8723 8.07788 14.3616C7.94766 14.8509 7.98144 15.3697 8.17399 15.8377C8.36654 16.3057 8.7071 16.6967 9.14286 16.95ZM14.8571 8.05388V6.90332C14.8571 5.68274 14.3755 4.51215 13.5182 3.64906C12.6609 2.78598 11.4981 2.30111 10.2857 2.30111C9.0733 2.30111 7.91053 2.78598 7.05323 3.64906C6.19592 4.51215 5.71429 5.68274 5.71429 6.90332V8.05388H14.8571Z" fill="#A54CE5"/>
</svg>
