<svg width="33" height="33" viewBox="0 0 33 33" fill="none" xmlns="http://www.w3.org/2000/svg">
<path d="M16.7962 4.32002C15.8453 2.64116 13.756 0.0883637 10.0134 0.637441C9.20549 0.756858 8.46757 1.16287 7.93384 1.78114C7.40037 2.39942 7.10669 3.18874 7.10645 4.0054V9.12878H12.0483C12.0831 7.8749 12.5927 6.68104 13.4742 5.78833C14.3554 4.89562 15.5429 4.37068 16.7963 4.32002H16.7962Z" fill="#A54CE5"/>
<path d="M13.5225 9.12888H20.4644C20.4195 7.91936 19.7486 6.82052 18.6929 6.22833C17.6374 5.63613 16.3496 5.63613 15.2942 6.22833C14.2387 6.82053 13.5675 7.91936 13.5226 9.12888H13.5225Z" fill="#A54CE5"/>
<path d="M21.9366 9.12897H26.8716L26.8714 4.0056C26.8714 3.18894 26.5777 2.3996 26.044 1.78134C25.5103 1.16306 24.7723 0.757049 23.9645 0.637388C20.2222 0.0885663 18.1329 2.64086 17.1816 4.31972C18.4365 4.36895 19.6255 4.89316 20.5082 5.78609C21.3911 6.6788 21.9017 7.87391 21.9365 9.12897H21.9366Z" fill="#A54CE5"/>
<path d="M4.2414 30.587C4.2414 31.1665 4.4717 31.7224 4.88138 32.1324C5.29128 32.5423 5.84714 32.7726 6.42673 32.7726H12.0441V19.6455H4.24121L4.2414 30.587Z" fill="#A54CE5"/>
<path d="M31.2845 10.6025H2.69198C2.2387 10.6028 1.8042 10.7829 1.48396 11.1031C1.16349 11.4236 0.983398 11.8581 0.983398 12.3114V16.5874V16.5872C0.983398 17.0071 1.14985 17.4097 1.44644 17.7067C1.74302 18.0038 2.14537 18.1712 2.5653 18.1719H31.4117C31.8314 18.1712 32.2337 18.0038 32.5303 17.7067C32.8269 17.4096 32.9934 17.007 32.9934 16.5872V12.3111V12.3114C32.9934 11.8581 32.8133 11.4236 32.4928 11.1031C32.1723 10.7826 31.7378 10.6025 31.2845 10.6025H31.2845Z" fill="#A54CE5"/>
<path d="M22.4681 32.7727H27.5515C28.131 32.7727 28.6871 32.5426 29.097 32.1327C29.5069 31.7228 29.7372 31.1669 29.7372 30.5871V19.6455H22.4678L22.4681 32.7727Z" fill="#A54CE5"/>
<path d="M13.5186 19.6445H20.9939V32.7722H13.5186V19.6445Z" fill="#A54CE5"/>
</svg>
