<svg width="33" height="33" viewBox="0 0 33 33" fill="none" xmlns="http://www.w3.org/2000/svg">
<path d="M16.7962 3.77022C15.8453 2.09136 13.756 -0.461441 10.0134 0.0876367C9.20549 0.207054 8.46757 0.613063 7.93384 1.23134C7.40037 1.84961 7.10669 2.63894 7.10645 3.4556V8.57897H12.0483C12.0831 7.32509 12.5927 6.13124 13.4742 5.23852C14.3554 4.34581 15.5429 3.82088 16.7963 3.77022H16.7962Z" fill="#949494"/>
<path d="M13.5225 8.57907H20.4644C20.4195 7.36955 19.7486 6.27071 18.6929 5.67853C17.6374 5.08632 16.3496 5.08632 15.2942 5.67853C14.2387 6.27073 13.5675 7.36955 13.5226 8.57907H13.5225Z" fill="#949494"/>
<path d="M21.9366 8.57917H26.8716L26.8714 3.45579C26.8714 2.63913 26.5777 1.8498 26.044 1.23153C25.5103 0.613253 24.7723 0.207244 23.9645 0.0875837C20.2222 -0.461238 18.1329 2.09105 17.1816 3.76992C18.4365 3.81915 19.6255 4.34335 20.5082 5.23629C21.3911 6.129 21.9017 7.32411 21.9365 8.57917H21.9366Z" fill="#949494"/>
<path d="M4.2414 30.0372C4.2414 30.6167 4.4717 31.1726 4.88138 31.5826C5.29128 31.9925 5.84714 32.2228 6.42673 32.2228H12.0441V19.0957H4.24121L4.2414 30.0372Z" fill="#949494"/>
<path d="M31.2845 10.0527H2.69198C2.2387 10.053 1.8042 10.2331 1.48396 10.5533C1.16349 10.8738 0.983398 11.3083 0.983398 11.7616V16.0376V16.0373C0.983398 16.4572 1.14985 16.8599 1.44644 17.1569C1.74302 17.454 2.14537 17.6214 2.5653 17.6221H31.4117C31.8314 17.6214 32.2337 17.454 32.5303 17.1569C32.8269 16.8598 32.9934 16.4572 32.9934 16.0373V11.7613V11.7616C32.9934 11.3083 32.8133 10.8738 32.4928 10.5533C32.1723 10.2328 31.7378 10.0527 31.2845 10.0527H31.2845Z" fill="#949494"/>
<path d="M22.4681 32.2228H27.5515C28.131 32.2228 28.6871 31.9928 29.097 31.5829C29.5069 31.173 29.7372 30.6171 29.7372 30.0373V19.0957H22.4678L22.4681 32.2228Z" fill="#949494"/>
<path d="M13.5186 19.0947H20.9939V32.2224H13.5186V19.0947Z" fill="#949494"/>
</svg>
