<svg width="23" height="24" viewBox="0 0 23 24" fill="none" xmlns="http://www.w3.org/2000/svg">
<path d="M2.17454 21.445V14.2967C2.17454 11.7688 3.18597 9.34457 4.98632 7.55715C6.78666 5.76972 9.22846 4.76555 11.7745 4.76555C14.3206 4.76555 16.7624 5.76972 18.5628 7.55715C20.3631 9.34457 21.3745 11.7688 21.3745 14.2967V21.445H22.5745V23.8278H0.974541V21.445H2.17454ZM4.57454 14.2967H6.97454C6.97454 13.0328 7.48025 11.8206 8.38043 10.9269C9.2806 10.0332 10.5015 9.5311 11.7745 9.5311V7.14833C9.86498 7.14833 8.03363 7.90145 6.68337 9.24202C5.33311 10.5826 4.57454 12.4008 4.57454 14.2967ZM10.5745 0H12.9745V3.57416H10.5745V0ZM21.1081 3.34542L22.8049 5.03004L20.2609 7.55697L18.5629 5.87235L21.1081 3.34542ZM0.744141 5.03004L2.44094 3.34542L4.98614 5.87116L3.29054 7.55816L0.744141 5.03004Z" fill="#A54CE5"/>
</svg>
