<svg width="201" height="201" viewBox="0 0 201 201" fill="none" xmlns="http://www.w3.org/2000/svg">
<path d="M19.8684 108.312C20.2472 108.975 20.3419 109.733 20.0578 110.395L8.5999 148.746C8.12644 150.167 8.97865 151.777 10.4937 152.155L49.034 163.045C49.6969 163.234 50.3597 163.708 50.7385 164.371L69.6772 199.597C70.4348 200.923 72.0446 201.396 73.3703 200.638L108.312 181.132C108.975 180.753 109.733 180.658 110.395 180.942L148.746 192.4C150.167 192.874 151.777 192.021 152.155 190.506L163.045 151.966C163.234 151.208 163.708 150.64 164.371 150.261L199.597 131.323C200.923 130.565 201.396 128.955 200.638 127.63L181.132 92.6878C180.753 92.0249 180.658 91.2674 180.942 90.6045L192.4 52.2536C192.874 50.8332 192.021 49.2234 190.506 48.8447L151.966 37.9549C151.303 37.7655 150.64 37.292 150.261 36.6292L131.323 1.40317C130.565 0.0774579 128.955 -0.39601 127.63 0.361539L92.6878 19.8684C92.0249 20.2472 91.2674 20.3419 90.6045 20.0578L52.2537 8.59988C50.8332 8.12641 49.2235 8.97865 48.8447 10.4938L37.9549 49.034C37.7655 49.7916 37.292 50.3597 36.6292 50.7385L1.40317 69.6772C0.0774624 70.4348 -0.396011 72.0446 0.361537 73.465L19.8684 108.312Z" fill="#FFF5CD"/>
<path d="M157.288 47.0586L139.881 38.3408L136.316 125.479C136.316 125.479 156.215 126.527 157.263 125.479C158.311 124.431 157.288 47.0586 157.288 47.0586Z" fill="#60767C"/>
<path d="M151.356 126.484C150.016 126.484 148.381 126.463 146.387 126.412C141.331 126.283 136.344 126.024 136.293 126.02L135.76 125.991L135.782 125.458L139.379 37.4846L157.827 46.7245L157.83 47.0522C157.834 47.2467 158.086 66.6195 158.208 85.8735C158.457 125.048 157.967 125.537 157.643 125.861C157.412 126.092 157.02 126.484 151.356 126.484ZM136.88 124.965C145.72 125.419 155.396 125.609 156.822 125.105C157.477 121.821 157.146 77.2385 156.757 47.3943L140.387 39.1986L136.88 124.965Z" fill="black"/>
<path d="M38.2308 167.833H136.82L157.269 112.084L153.168 118.724C149.401 123.214 142.657 125.476 136.795 125.476H38.2308C28.5192 125.476 20.644 133.351 20.644 143.063V150.246C20.644 159.962 28.5192 167.833 38.2308 167.833Z" fill="#EDF4F8"/>
<path d="M137.194 168.373H38.2304C28.2343 168.373 20.1035 160.242 20.1035 150.246V143.063C20.1035 133.067 28.2343 124.936 38.2304 124.936H136.791C143.128 124.936 149.379 122.375 152.725 118.407L159.61 107.262L137.194 168.373ZM38.2304 126.016C28.8321 126.016 21.1838 133.664 21.1838 143.063V150.246C21.1838 159.645 28.8321 167.293 38.2304 167.293H136.441L154.925 116.906L153.578 119.073C150.042 123.29 143.452 126.016 136.791 126.016H38.2304Z" fill="black"/>
<path d="M136.822 157.487V167.836H38.2326C31.0992 167.836 24.9596 163.59 22.1978 157.487" fill="#7DADCD"/>
<path d="M137.361 168.377H38.2316C31.1234 168.377 24.6346 164.189 21.707 157.711L22.6901 157.264C25.4448 163.357 31.5447 167.297 38.2316 167.297H136.28V157.488H137.361V168.377Z" fill="black"/>
<path d="M136.736 167.833C136.736 167.833 127.511 146.116 151.1 121.241C155.047 117.078 157.297 111.594 157.297 105.862V47.0588L184.462 58.8446V146.202L136.736 167.833Z" fill="#7DADCD"/>
<path d="M136.456 168.554L136.24 168.046C136.143 167.819 133.889 162.396 134.533 153.826C135.127 145.947 138.411 133.834 150.708 120.867C154.608 116.755 156.754 111.425 156.754 105.858V46.2346L185 58.4885V146.548L136.456 168.554ZM157.835 47.8802V105.858C157.835 111.703 155.58 117.295 151.49 121.609C139.412 134.345 136.19 146.199 135.61 153.905C135.095 160.736 136.506 165.568 137.039 167.102L183.92 145.854V59.1979L157.835 47.8802Z" fill="black"/>
<path d="M136.322 125.474H38.5614C33.9558 125.474 30.2217 121.74 30.2217 117.134V45.8795C30.2217 41.2739 33.9558 37.5398 38.5614 37.5398H136.322C140.928 37.5398 144.662 41.2739 144.662 45.8795V117.138C144.662 121.743 140.928 125.474 136.322 125.474Z" fill="#83A1A8"/>
<path d="M136.322 126.014H38.561C33.6637 126.014 29.6812 122.032 29.6812 117.134V45.8798C29.6812 40.9826 33.6637 37 38.561 37H136.322C141.219 37 145.202 40.9826 145.202 45.8798V117.138C145.202 122.032 141.219 126.014 136.322 126.014ZM38.561 38.0803C34.2615 38.0803 30.7614 41.5803 30.7614 45.8798V117.138C30.7614 121.438 34.2615 124.938 38.561 124.938H136.322C140.621 124.938 144.121 121.438 144.121 117.138V45.8798C144.121 41.5803 140.621 38.0803 136.322 38.0803H38.561Z" fill="black"/>
<path d="M124.871 117.44H51.8807C47.2751 117.44 43.541 113.706 43.541 109.1V56.8802C43.541 52.2747 47.2751 48.5405 51.8807 48.5405H124.871C129.476 48.5405 133.211 52.2747 133.211 56.8802V109.104C133.207 113.71 129.476 117.44 124.871 117.44Z" fill="black"/>
<path d="M124.87 117.984H51.8798C46.9826 117.984 43 114.001 43 109.104V56.8798C43 51.9826 46.9826 48 51.8798 48H124.87C129.767 48 133.75 51.9826 133.75 56.8798V109.104C133.746 113.997 129.764 117.984 124.87 117.984ZM51.8762 49.0803C47.5767 49.0803 44.0767 52.5803 44.0767 56.8798V109.104C44.0767 113.403 47.5767 116.903 51.8762 116.903H124.866C129.166 116.903 132.666 113.403 132.666 109.104V56.8798C132.666 52.5803 129.166 49.0803 124.866 49.0803H51.8762Z" fill="black"/>
<path d="M41.5104 149.268C45.2492 149.268 48.2801 146.237 48.2801 142.498C48.2801 138.759 45.2492 135.728 41.5104 135.728C37.7716 135.728 34.7407 138.759 34.7407 142.498C34.7407 146.237 37.7716 149.268 41.5104 149.268Z" fill="#C0C3CA"/>
<path d="M41.51 149.808C37.4806 149.808 34.2002 146.528 34.2002 142.499C34.2002 138.469 37.4806 135.189 41.51 135.189C45.5394 135.189 48.8198 138.469 48.8198 142.499C48.8198 146.528 45.5394 149.808 41.51 149.808ZM41.51 136.265C38.0748 136.265 35.2805 139.06 35.2805 142.495C35.2805 145.93 38.0748 148.725 41.51 148.725C44.9453 148.725 47.7396 145.93 47.7396 142.495C47.7396 139.06 44.9453 136.265 41.51 136.265Z" fill="black"/>
<path d="M40.7311 146.402C43.6784 146.402 46.0676 144.013 46.0676 141.066C46.0676 138.118 43.6784 135.729 40.7311 135.729C37.7838 135.729 35.3945 138.118 35.3945 141.066C35.3945 144.013 37.7838 146.402 40.7311 146.402Z" fill="#C0C3CA"/>
<path d="M40.7302 146.942C37.4894 146.942 34.8535 144.306 34.8535 141.065C34.8535 137.825 37.4894 135.189 40.7302 135.189C43.971 135.189 46.6069 137.825 46.6069 141.065C46.6069 144.306 43.971 146.942 40.7302 146.942ZM40.7302 136.269C38.0871 136.269 35.9338 138.419 35.9338 141.065C35.9338 143.708 38.0835 145.862 40.7302 145.862C43.3768 145.862 45.5266 143.712 45.5266 141.065C45.5266 138.422 43.3732 136.269 40.7302 136.269Z" fill="black"/>
<path d="M42.4049 140.616C42.1709 142.51 41.0618 143.165 39.0633 142.546L34.04 133.846L37.3817 131.916L42.4049 140.616Z" fill="#C0C3CA"/>
<path d="M40.3687 143.31C39.9294 143.31 39.4396 143.228 38.9067 143.062L38.7051 143.001L33.3037 133.649L37.5816 131.179L42.9649 140.502L42.9433 140.682C42.8101 141.755 42.4104 142.515 41.755 142.936C41.3733 143.184 40.9088 143.31 40.3687 143.31ZM39.4252 142.086C40.1994 142.295 40.7864 142.277 41.1717 142.028C41.5138 141.805 41.7406 141.369 41.8486 140.725L37.1891 132.655L34.7837 134.045L39.4252 142.086Z" fill="black"/>
<path d="M86.0299 150.662C93.2768 150.662 99.1516 145.801 99.1516 139.805C99.1516 133.809 93.2768 128.948 86.0299 128.948C78.783 128.948 72.9082 133.809 72.9082 139.805C72.9082 145.801 78.783 150.662 86.0299 150.662Z" fill="#60767C"/>
<path d="M86.031 151.201C78.4979 151.201 72.3691 146.088 72.3691 139.804C72.3691 133.521 78.4979 128.407 86.031 128.407C93.564 128.407 99.6928 133.521 99.6928 139.804C99.6928 146.088 93.564 151.201 86.031 151.201ZM86.031 129.484C79.092 129.484 73.4494 134.111 73.4494 139.801C73.4494 145.49 79.0956 150.117 86.031 150.117C92.9663 150.117 98.6125 145.49 98.6125 139.801C98.6125 134.115 92.9699 129.484 86.031 129.484Z" fill="black"/>
<path d="M75.7871 143.947C76.8674 144.938 78.0305 145.755 79.2836 146.392C80.5367 147.026 81.8618 147.491 83.2266 147.782C84.5913 148.059 85.9921 148.211 87.4036 148.178C88.8152 148.15 90.2303 147.962 91.6599 147.642C90.3924 148.384 88.9448 148.83 87.4684 149.017C85.9885 149.212 84.4689 149.143 82.9997 148.834C82.2687 148.654 81.545 148.452 80.85 148.164C80.1622 147.861 79.4816 147.541 78.8623 147.112C77.6056 146.299 76.5181 145.218 75.7871 143.947Z" fill="#C0C3CA"/>
<path d="M86.0266 145.893C91.6825 145.893 96.2676 142.1 96.2676 137.42C96.2676 132.741 91.6825 128.947 86.0266 128.947C80.3707 128.947 75.7856 132.741 75.7856 137.42C75.7856 142.1 80.3707 145.893 86.0266 145.893Z" fill="#FEC200"/>
<path d="M86.0257 146.433C80.0806 146.433 75.2446 142.39 75.2446 137.42C75.2446 132.451 80.0806 128.407 86.0257 128.407C91.9708 128.407 96.8068 132.451 96.8068 137.42C96.8068 142.39 91.9708 146.433 86.0257 146.433ZM86.0257 129.484C80.6748 129.484 76.3249 133.042 76.3249 137.417C76.3249 141.792 80.6784 145.349 86.0257 145.349C91.3767 145.349 95.7266 141.792 95.7266 137.417C95.7266 133.042 91.3767 129.484 86.0257 129.484Z" fill="black"/>
<path d="M116.062 161.518C123.309 161.518 129.184 156.657 129.184 150.661C129.184 144.665 123.309 139.805 116.062 139.805C108.815 139.805 102.94 144.665 102.94 150.661C102.94 156.657 108.815 161.518 116.062 161.518Z" fill="#60767C"/>
<path d="M116.062 162.057C108.529 162.057 102.4 156.944 102.4 150.66C102.4 144.377 108.529 139.263 116.062 139.263C123.595 139.263 129.724 144.377 129.724 150.66C129.728 156.944 123.595 162.057 116.062 162.057ZM116.062 140.344C109.123 140.344 103.481 144.971 103.481 150.66C103.481 156.35 109.127 160.977 116.062 160.977C122.998 160.977 128.644 156.35 128.644 150.66C128.647 144.971 123.001 140.344 116.062 140.344Z" fill="black"/>
<path d="M116.067 156.751C121.723 156.751 126.308 152.957 126.308 148.278C126.308 143.598 121.723 139.805 116.067 139.805C110.411 139.805 105.826 143.598 105.826 148.278C105.826 152.957 110.411 156.751 116.067 156.751Z" fill="#4EEB57"/>
<path d="M116.066 157.293C110.121 157.293 105.285 153.25 105.285 148.277C105.285 143.307 110.121 139.264 116.066 139.264C122.011 139.264 126.847 143.307 126.847 148.277C126.851 153.25 122.011 157.293 116.066 157.293ZM116.066 140.344C110.715 140.344 106.365 143.902 106.365 148.277C106.365 152.652 110.719 156.213 116.066 156.213C121.417 156.213 125.767 152.655 125.767 148.277C125.771 143.902 121.417 140.344 116.066 140.344Z" fill="black"/>
<path d="M105.825 154.804C106.905 155.794 108.069 156.611 109.322 157.249C110.575 157.882 111.9 158.347 113.265 158.639C114.629 158.916 116.03 159.067 117.442 159.035C118.853 159.006 120.268 158.819 121.698 158.498C120.43 159.24 118.983 159.687 117.507 159.874C116.027 160.068 114.507 160 113.038 159.69C112.307 159.51 111.583 159.308 110.888 159.02C110.2 158.718 109.52 158.397 108.9 157.969C107.647 157.159 106.556 156.078 105.825 154.804Z" fill="#C0C3CA"/>
<path d="M29.1354 138.636C35.5391 138.636 40.7303 133.445 40.7303 127.041C40.7303 120.637 35.5391 115.446 29.1354 115.446C22.7317 115.446 17.5405 120.637 17.5405 127.041C17.5405 133.445 22.7317 138.636 29.1354 138.636Z" fill="#FC326F"/>
<path d="M29.135 139.175C22.4446 139.175 17 133.731 17 127.04C17 120.35 22.4446 114.905 29.135 114.905C35.8255 114.905 41.2701 120.35 41.2701 127.04C41.2701 133.731 35.8255 139.175 29.135 139.175ZM29.135 115.989C23.0387 115.989 18.0803 120.947 18.0803 127.044C18.0803 133.14 23.0387 138.098 29.135 138.098C35.2314 138.098 40.1898 133.14 40.1898 127.044C40.1898 120.947 35.2314 115.989 29.135 115.989Z" fill="black"/>
<g opacity="0.5">
<path opacity="0.1" d="M50 68.424L71.6432 78.6149C71.8603 78.7171 72.1014 78.7704 72.3461 78.7704C72.5907 78.7704 72.8318 78.7171 73.0489 78.6149L94.6921 68.4258V86.1279C94.6922 87.6547 94.047 89.1236 92.8888 90.2334C91.7307 91.3432 90.1473 92.0096 88.4636 92.0961L88.0899 92.1053H56.6022C54.9159 92.1054 53.2933 91.5212 52.0676 90.4727C50.8418 89.4241 50.1056 87.9907 50.0102 86.4663L50 86.1279V68.424ZM56.6022 59H88.0899C89.7763 58.9999 91.3988 59.584 92.6245 60.6326C93.8503 61.6811 94.5865 63.1146 94.6819 64.6389L94.6921 64.9773V65.3157L72.3461 75.8359L50 65.3157V64.9773C49.9999 63.4506 50.6451 61.9816 51.8033 60.8719C52.9614 59.7621 54.5448 59.0956 56.2285 59.0092L56.6022 59H88.0899H56.6022Z" fill="white"/>
<path opacity="0.2" d="M55.3682 69.3187L77.0113 79.5096C77.2284 79.6118 77.4695 79.6652 77.7142 79.6652C77.9589 79.6652 78.2 79.6118 78.4171 79.5096L100.06 69.3206V87.0227C100.06 88.5495 99.4152 90.0184 98.257 91.1282C97.0988 92.2379 95.5155 92.9044 93.8318 92.9908L93.458 93H61.9704C60.284 93.0001 58.6615 92.416 57.4357 91.3675C56.2099 90.3189 55.4738 88.8854 55.3783 87.3611L55.3682 87.0227V69.3187ZM61.9704 59.8948H93.458C95.1444 59.8947 96.7669 60.4788 97.9927 61.5274C99.2185 62.5759 99.9546 64.0094 100.05 65.5337L100.06 65.8721V66.2105L77.7142 76.7306L55.3682 66.2105V65.8721C55.3681 64.3453 56.0133 62.8764 57.1714 61.7666C58.3296 60.6569 59.9129 59.9904 61.5966 59.904L61.9704 59.8948H93.458H61.9704Z" fill="white"/>
<path opacity="0.4" d="M60.7368 68.424L82.38 78.6149C82.5971 78.7171 82.8382 78.7704 83.0829 78.7704C83.3276 78.7704 83.5687 78.7171 83.7858 78.6149L105.429 68.4258V86.1279C105.429 87.6547 104.784 89.1236 103.626 90.2334C102.467 91.3432 100.884 92.0096 99.2005 92.0961L98.8267 92.1053H67.3391C65.6527 92.1054 64.0302 91.5212 62.8044 90.4727C61.5786 89.4241 60.8424 87.9907 60.747 86.4663L60.7368 86.1279V68.424ZM67.3391 59H98.8267C100.513 58.9999 102.136 59.584 103.361 60.6326C104.587 61.6811 105.323 63.1146 105.419 64.6389L105.429 64.9773V65.3157L83.0829 75.8359L60.7368 65.3157V64.9773C60.7367 63.4506 61.3819 61.9816 62.5401 60.8719C63.6983 59.7621 65.2816 59.0956 66.9653 59.0092L67.3391 59H98.8267H67.3391Z" fill="white"/>
</g>
<path d="M65.0986 68.4239L86.7634 78.6148C86.9807 78.717 87.222 78.7703 87.467 78.7703C87.7119 78.7703 87.9532 78.717 88.1706 78.6148L109.835 68.4258V86.1278C109.835 87.6546 109.19 89.1235 108.03 90.2333C106.871 91.343 105.286 92.0095 103.601 92.0959L103.226 92.1051H71.7075C70.0194 92.1052 68.3953 91.5211 67.1683 90.4725C65.9412 89.424 65.2044 87.9905 65.1088 86.4662L65.0986 86.1278V68.4239ZM71.7075 59H103.226C104.915 58.9999 106.539 59.584 107.766 60.6326C108.993 61.6811 109.73 63.1146 109.825 64.6389L109.835 64.9773V65.3157L87.467 75.8358L65.0986 65.3157V64.9773C65.0985 63.4505 65.7444 61.9816 66.9037 60.8719C68.063 59.7621 69.6479 59.0956 71.3333 59.0092L71.7075 59H103.226H71.7075Z" fill="white"/>
<path d="M58.2078 109.113C57.7066 109.113 57.265 109.033 56.8828 108.873C56.5038 108.713 56.2063 108.475 55.9901 108.159C55.7772 107.84 55.6707 107.443 55.6707 106.97C55.6707 106.92 55.6707 106.875 55.6707 106.834C55.6707 106.79 55.6707 106.743 55.6707 106.693H57.1318C57.1318 106.74 57.1318 106.782 57.1318 106.82C57.1318 106.854 57.1318 106.895 57.1318 106.942C57.1318 107.265 57.2227 107.512 57.4044 107.684C57.586 107.857 57.8554 107.943 58.2125 107.943C58.5727 107.943 58.8499 107.886 59.0441 107.774C59.2383 107.658 59.3354 107.468 59.3354 107.205C59.3354 107.02 59.2618 106.858 59.1146 106.717C58.9705 106.576 58.7731 106.45 58.5226 106.341C58.2751 106.228 57.9916 106.123 57.6722 106.026C57.3245 105.916 57.0019 105.772 56.7043 105.594C56.4067 105.415 56.1671 105.188 55.9854 104.912C55.8069 104.637 55.7176 104.297 55.7176 103.893C55.7176 103.486 55.8257 103.14 56.0418 102.855C56.258 102.566 56.5524 102.347 56.9251 102.197C57.2979 102.043 57.7191 101.967 58.189 101.967C58.6807 101.967 59.1146 102.043 59.4904 102.197C59.8694 102.347 60.1654 102.574 60.3784 102.878C60.5945 103.179 60.7026 103.555 60.7026 104.006C60.7026 104.056 60.7026 104.103 60.7026 104.147C60.7026 104.187 60.7026 104.234 60.7026 104.288H59.2461C59.2461 104.253 59.2461 104.217 59.2461 104.179C59.2461 104.142 59.2461 104.106 59.2461 104.071C59.2461 103.768 59.1615 103.534 58.9924 103.371C58.8264 103.208 58.5648 103.127 58.2078 103.127C57.8632 103.127 57.5954 103.19 57.4044 103.315C57.2164 103.44 57.1224 103.633 57.1224 103.893C57.1224 104.081 57.1898 104.241 57.3245 104.372C57.4623 104.504 57.6502 104.621 57.8883 104.724C58.1263 104.828 58.3973 104.931 58.7011 105.035C59.1146 105.179 59.4748 105.338 59.7817 105.514C60.0918 105.686 60.3314 105.904 60.5006 106.167C60.6697 106.427 60.7543 106.759 60.7543 107.163C60.7543 107.576 60.6478 107.929 60.4348 108.22C60.2218 108.511 59.9227 108.734 59.5374 108.887C59.1553 109.038 58.7121 109.113 58.2078 109.113ZM62.2676 106.942V105.979H65.5752L65.4343 106.223C65.4343 106.198 65.4343 106.175 65.4343 106.153C65.4343 106.128 65.4343 106.104 65.4343 106.082C65.4343 105.904 65.392 105.733 65.3074 105.57C65.2229 105.404 65.0913 105.27 64.9128 105.166C64.7374 105.06 64.5118 105.006 64.2362 105.006C63.9606 105.006 63.7225 105.066 63.5221 105.185C63.3247 105.301 63.1728 105.468 63.0663 105.688C62.9629 105.907 62.9113 106.172 62.9113 106.482C62.9113 106.801 62.9614 107.075 63.0616 107.304C63.165 107.529 63.3169 107.703 63.5174 107.825C63.7209 107.948 63.9731 108.009 64.2738 108.009C64.468 108.009 64.6356 107.991 64.7765 107.957C64.9175 107.919 65.0318 107.872 65.1195 107.816C65.2103 107.76 65.2792 107.697 65.3262 107.628C65.3732 107.559 65.4014 107.492 65.4108 107.426H66.8485C66.8297 107.636 66.7577 107.843 66.6324 108.046C66.5071 108.247 66.3332 108.428 66.1108 108.591C65.8885 108.751 65.6175 108.878 65.298 108.972C64.9817 109.066 64.6199 109.113 64.2127 109.113C63.6614 109.113 63.1806 109.003 62.7703 108.784C62.36 108.561 62.0421 108.256 61.8165 107.868C61.591 107.476 61.4783 107.025 61.4783 106.515C61.4783 105.998 61.5926 105.545 61.8212 105.157C62.053 104.765 62.3741 104.461 62.7844 104.245C63.1979 104.026 63.6755 103.916 64.2174 103.916C64.7718 103.916 65.251 104.028 65.6551 104.25C66.0592 104.469 66.3708 104.778 66.5901 105.176C66.8093 105.57 66.919 106.031 66.919 106.557C66.919 106.635 66.9174 106.71 66.9143 106.782C66.9111 106.854 66.9064 106.908 66.9002 106.942H62.2676ZM71.3436 109V106.881C71.3436 106.762 71.3436 106.654 71.3436 106.557C71.3436 106.46 71.3436 106.372 71.3436 106.294C71.3436 106.087 71.3169 105.899 71.2637 105.73C71.2104 105.558 71.1149 105.42 70.9771 105.316C70.8393 105.213 70.6404 105.161 70.3804 105.161C70.1549 105.161 69.9591 105.213 69.7931 105.316C69.6302 105.42 69.5049 105.564 69.4172 105.749C69.3295 105.934 69.2857 106.147 69.2857 106.388L68.8816 106.096C68.8816 105.664 68.9756 105.285 69.1635 104.959C69.3515 104.634 69.6052 104.378 69.9247 104.194C70.2473 104.009 70.6044 103.916 70.9959 103.916C71.4062 103.916 71.7429 103.999 72.006 104.165C72.2723 104.328 72.4696 104.557 72.598 104.851C72.7296 105.143 72.7954 105.484 72.7954 105.876C72.7954 106.035 72.7954 106.214 72.7954 106.411C72.7954 106.609 72.7954 106.811 72.7954 107.017V109H71.3436ZM67.8292 109V104.01H69.2857V109H67.8292ZM75.9717 109.113C75.5552 109.113 75.1715 109.014 74.8206 108.817C74.4698 108.616 74.1879 108.32 73.9749 107.929C73.7619 107.537 73.6555 107.055 73.6555 106.482C73.6555 105.934 73.7635 105.468 73.9796 105.086C74.1989 104.704 74.4839 104.414 74.8347 104.217C75.1887 104.017 75.5677 103.916 75.9717 103.916C76.3664 103.916 76.7266 104.017 77.0524 104.217C77.3812 104.418 77.6444 104.692 77.8417 105.039C78.039 105.384 78.1377 105.782 78.1377 106.233C78.1377 106.248 78.1377 106.264 78.1377 106.28C78.1377 106.292 78.1377 106.306 78.1377 106.322L77.5081 106.331C77.5081 106.322 77.5081 106.313 77.5081 106.303C77.5081 106.291 77.5081 106.28 77.5081 106.27C77.5081 106.035 77.4517 105.833 77.339 105.664C77.2262 105.495 77.0806 105.365 76.902 105.274C76.7235 105.18 76.5371 105.133 76.3429 105.133C76.0203 105.133 75.7415 105.241 75.5066 105.457C75.2717 105.67 75.1542 106.012 75.1542 106.482C75.1542 106.952 75.2717 107.298 75.5066 107.52C75.7447 107.739 76.0234 107.849 76.3429 107.849C76.5434 107.849 76.7329 107.802 76.9114 107.708C77.0899 107.611 77.234 107.475 77.3437 107.299C77.4533 107.124 77.5081 106.917 77.5081 106.679L78.1377 106.712C78.1377 107.16 78.0406 107.565 77.8464 107.929C77.6553 108.289 77.3953 108.577 77.0665 108.793C76.7407 109.006 76.3758 109.113 75.9717 109.113ZM77.5081 109V101.656H78.9693V109H77.5081ZM80.0234 109V104.01H81.4658V109H80.0234ZM80.7423 103.198C80.5167 103.198 80.3194 103.138 80.1503 103.019C79.9843 102.9 79.9013 102.732 79.9013 102.516C79.9013 102.297 79.9843 102.128 80.1503 102.009C80.3194 101.89 80.5167 101.83 80.7423 101.83C80.9709 101.83 81.1682 101.89 81.3343 102.009C81.5034 102.128 81.588 102.297 81.588 102.516C81.588 102.736 81.5034 102.905 81.3343 103.024C81.1682 103.14 80.9709 103.198 80.7423 103.198ZM86.0535 109V106.881C86.0535 106.762 86.0535 106.654 86.0535 106.557C86.0535 106.46 86.0535 106.372 86.0535 106.294C86.0535 106.087 86.0268 105.899 85.9736 105.73C85.9203 105.558 85.8248 105.42 85.687 105.316C85.5492 105.213 85.3503 105.161 85.0903 105.161C84.8648 105.161 84.669 105.213 84.503 105.316C84.3401 105.42 84.2148 105.564 84.1271 105.749C84.0394 105.934 83.9956 106.147 83.9956 106.388L83.5915 106.096C83.5915 105.664 83.6855 105.285 83.8734 104.959C84.0614 104.634 84.3151 104.378 84.6346 104.194C84.9572 104.009 85.3142 103.916 85.7058 103.916C86.1161 103.916 86.4528 103.999 86.7159 104.165C86.9822 104.328 87.1795 104.557 87.3079 104.851C87.4395 105.143 87.5052 105.484 87.5052 105.876C87.5052 106.035 87.5052 106.214 87.5052 106.411C87.5052 106.609 87.5052 106.811 87.5052 107.017V109H86.0535ZM82.5391 109V104.01H83.9956V109H82.5391ZM92.0395 108.408C92.3464 108.439 92.6142 108.499 92.8429 108.587C93.0747 108.671 93.2548 108.798 93.3832 108.967C93.5116 109.133 93.5758 109.356 93.5758 109.634C93.5758 109.957 93.4693 110.231 93.2563 110.456C93.0465 110.685 92.7379 110.859 92.3308 110.978C91.9236 111.097 91.4302 111.157 90.8508 111.157C89.9957 111.157 89.3332 111.033 88.8634 110.785C88.3967 110.541 88.1633 110.214 88.1633 109.803C88.1633 109.688 88.1758 109.583 88.2009 109.489C88.2291 109.398 88.2635 109.319 88.3043 109.254L89.6292 109.446C89.6135 109.468 89.5963 109.501 89.5775 109.545C89.5619 109.592 89.554 109.65 89.554 109.719C89.554 109.885 89.6777 110.009 89.9252 110.09C90.1758 110.171 90.4984 110.212 90.8931 110.212C91.1718 110.212 91.4099 110.192 91.6072 110.151C91.8077 110.114 91.9596 110.057 92.0629 109.982C92.1694 109.907 92.2227 109.821 92.2227 109.724C92.2227 109.583 92.1538 109.49 92.016 109.446C91.8813 109.402 91.7247 109.371 91.5461 109.352L89.6574 109.16C89.3097 109.125 89.0215 109.025 88.7929 108.859C88.5642 108.693 88.4499 108.469 88.4499 108.187C88.4499 108.012 88.4985 107.852 88.5956 107.708C88.6927 107.561 88.8039 107.44 88.9291 107.346C89.0544 107.249 89.1594 107.188 89.2439 107.163L89.9863 107.539C89.9268 107.548 89.8563 107.586 89.7748 107.652C89.6965 107.717 89.6574 107.794 89.6574 107.882C89.6574 107.969 89.7012 108.045 89.7889 108.107C89.8798 108.17 90.0442 108.212 90.2823 108.234L92.0395 108.408ZM92.5328 104.01H93.8154L93.2939 105.927C93.1968 106.291 93.0527 106.615 92.8617 106.9C92.6706 107.182 92.4153 107.404 92.0958 107.567C91.7795 107.73 91.3801 107.811 90.8978 107.811C90.3903 107.811 89.9503 107.733 89.5775 107.576C89.2079 107.42 88.9229 107.199 88.7224 106.914C88.522 106.626 88.4217 106.286 88.4217 105.894C88.4217 105.503 88.5235 105.158 88.7271 104.861C88.9338 104.563 89.2142 104.331 89.5681 104.165C89.9252 103.999 90.3293 103.916 90.7803 103.916C91.1217 103.916 91.4334 103.973 91.7153 104.086C92.0003 104.195 92.229 104.341 92.4012 104.522C92.5766 104.704 92.6675 104.905 92.6737 105.124L92.4059 105.194L92.5328 104.01ZM90.8884 106.745C91.0951 106.745 91.2768 106.712 91.4334 106.646C91.59 106.577 91.7121 106.479 91.7998 106.35C91.8875 106.219 91.9314 106.06 91.9314 105.876C91.9314 105.694 91.8875 105.539 91.7998 105.41C91.7121 105.282 91.59 105.183 91.4334 105.114C91.2768 105.046 91.0951 105.011 90.8884 105.011C90.691 105.011 90.5125 105.047 90.3527 105.119C90.1961 105.188 90.0724 105.288 89.9816 105.42C89.8907 105.548 89.8453 105.705 89.8453 105.89C89.8453 106.071 89.8892 106.226 89.9769 106.355C90.0646 106.48 90.1867 106.577 90.3433 106.646C90.5 106.712 90.6816 106.745 90.8884 106.745ZM99.8092 109.113C99.377 109.113 98.9729 109.034 98.597 108.878C98.2212 108.721 97.8907 108.491 97.6057 108.187C97.3207 107.883 97.0967 107.509 96.9338 107.064C96.7709 106.616 96.6895 106.104 96.6895 105.528C96.6895 104.948 96.7694 104.438 96.9291 103.996C97.092 103.551 97.316 103.179 97.601 102.878C97.886 102.577 98.2165 102.35 98.5923 102.197C98.9682 102.043 99.3738 101.967 99.8092 101.967C100.241 101.967 100.646 102.043 101.021 102.197C101.4 102.35 101.732 102.577 102.017 102.878C102.302 103.179 102.525 103.551 102.685 103.996C102.844 104.438 102.924 104.948 102.924 105.528C102.924 106.104 102.843 106.616 102.68 107.064C102.52 107.509 102.296 107.883 102.008 108.187C101.723 108.491 101.391 108.721 101.012 108.878C100.636 109.034 100.235 109.113 99.8092 109.113ZM99.8092 107.943C100.101 107.943 100.37 107.863 100.617 107.703C100.868 107.544 101.068 107.287 101.219 106.933C101.369 106.576 101.444 106.107 101.444 105.528C101.444 104.945 101.368 104.479 101.214 104.128C101.064 103.777 100.865 103.525 100.617 103.371C100.37 103.215 100.101 103.136 99.8092 103.136C99.5179 103.136 99.247 103.215 98.9964 103.371C98.749 103.525 98.5501 103.777 98.3997 104.128C98.2494 104.479 98.1742 104.945 98.1742 105.528C98.1742 106.111 98.2494 106.579 98.3997 106.933C98.5501 107.287 98.749 107.544 98.9964 107.703C99.247 107.863 99.5179 107.943 99.8092 107.943ZM108.038 103.198H105.75L106.333 102.502V109H104.881V102.502L105.482 103.198H103.18V102.07H108.038V103.198ZM110.387 109H108.926V102.07H111.299C111.828 102.07 112.281 102.173 112.657 102.38C113.036 102.584 113.324 102.861 113.521 103.212C113.722 103.559 113.822 103.952 113.822 104.391C113.822 104.826 113.72 105.226 113.516 105.589C113.316 105.949 113.028 106.239 112.652 106.458C112.276 106.674 111.825 106.782 111.299 106.782H110.387V109ZM110.387 106.331L109.73 105.655H111.144C111.388 105.655 111.601 105.606 111.783 105.509C111.964 105.409 112.105 105.265 112.206 105.077C112.306 104.886 112.356 104.657 112.356 104.391C112.356 104.122 112.306 103.899 112.206 103.724C112.109 103.545 111.969 103.414 111.787 103.329C111.609 103.241 111.394 103.198 111.144 103.198H109.73L110.387 102.502V106.331ZM117.883 109.141C117.667 109.141 117.483 109.066 117.333 108.915C117.183 108.765 117.108 108.582 117.108 108.366C117.108 108.153 117.183 107.971 117.333 107.821C117.483 107.67 117.667 107.595 117.883 107.595C118.096 107.595 118.277 107.67 118.428 107.821C118.578 107.971 118.653 108.153 118.653 108.366C118.653 108.582 118.578 108.765 118.428 108.915C118.277 109.066 118.096 109.141 117.883 109.141ZM120.617 109.141C120.401 109.141 120.218 109.066 120.068 108.915C119.917 108.765 119.842 108.582 119.842 108.366C119.842 108.153 119.917 107.971 120.068 107.821C120.218 107.67 120.401 107.595 120.617 107.595C120.83 107.595 121.012 107.67 121.162 107.821C121.313 107.971 121.388 108.153 121.388 108.366C121.388 108.582 121.313 108.765 121.162 108.915C121.012 109.066 120.83 109.141 120.617 109.141ZM123.352 109.141C123.136 109.141 122.953 109.066 122.802 108.915C122.652 108.765 122.577 108.582 122.577 108.366C122.577 108.153 122.652 107.971 122.802 107.821C122.953 107.67 123.136 107.595 123.352 107.595C123.565 107.595 123.747 107.67 123.897 107.821C124.047 107.971 124.122 108.153 124.122 108.366C124.122 108.582 124.047 108.765 123.897 108.915C123.747 109.066 123.565 109.141 123.352 109.141Z" fill="white"/>
<path d="M173.576 98.2345L167.475 100.387C166.015 100.903 164.48 99.8202 164.48 98.27V64.7316C164.48 63.1813 166.011 62.0984 167.475 62.6141L173.576 64.7671C174.475 65.0829 175.074 65.9338 175.074 66.8846V96.117C175.078 97.0678 174.475 97.9154 173.576 98.2345Z" fill="#C0C3CA"/>
<path d="M166.72 101C166.166 101 165.624 100.829 165.154 100.494C164.422 99.9751 164 99.1629 164 98.2669V64.7318C164 63.8325 164.419 63.0236 165.154 62.5047C165.885 61.9858 166.791 61.8601 167.639 62.1598L173.74 64.3128C174.829 64.6963 175.561 65.7309 175.561 66.8879V96.1204C175.561 97.2742 174.829 98.3088 173.74 98.6956L167.639 100.849C167.336 100.948 167.026 101 166.72 101ZM166.723 62.9688C166.366 62.9688 166.014 63.0784 165.711 63.2943C165.238 63.6295 164.967 64.1548 164.967 64.7318V98.2669C164.967 98.847 165.238 99.3724 165.711 99.7044C166.185 100.04 166.769 100.12 167.316 99.9267L173.418 97.7738C174.12 97.5256 174.594 96.8585 174.594 96.1107V66.8783C174.594 66.1305 174.12 65.4634 173.418 65.2152L167.316 63.0623C167.12 63.001 166.92 62.9688 166.723 62.9688Z" fill="black"/>
<path d="M172.067 95.136L167.491 97.2019V65.7939L172.067 67.8631V95.136Z" fill="#414243"/>
<g filter="url(#filter0_d_273_3113)">
<path d="M167.007 97.9516V65.0449L172.551 67.5492V95.4441L167.007 97.9516ZM167.974 66.5404V96.4497L171.584 94.8188V68.1744L167.974 66.5404Z" fill="black"/>
</g>
<defs>
<filter id="filter0_d_273_3113" x="163.007" y="65.0449" width="13.5435" height="40.9067" filterUnits="userSpaceOnUse" color-interpolation-filters="sRGB">
<feFlood flood-opacity="0" result="BackgroundImageFix"/>
<feColorMatrix in="SourceAlpha" type="matrix" values="0 0 0 0 0 0 0 0 0 0 0 0 0 0 0 0 0 0 127 0" result="hardAlpha"/>
<feOffset dy="4"/>
<feGaussianBlur stdDeviation="2"/>
<feComposite in2="hardAlpha" operator="out"/>
<feColorMatrix type="matrix" values="0 0 0 0 0 0 0 0 0 0 0 0 0 0 0 0 0 0 0.25 0"/>
<feBlend mode="normal" in2="BackgroundImageFix" result="effect1_dropShadow_273_3113"/>
<feBlend mode="normal" in="SourceGraphic" in2="effect1_dropShadow_273_3113" result="shape"/>
</filter>
</defs>
</svg>
