<svg width="24" height="24" viewBox="0 0 24 24" fill="none" xmlns="http://www.w3.org/2000/svg">
<path d="M19.6137 19.4839H12.0546L8.29168 23.2363C7.78108 23.7454 7.15371 24 6.40957 24C5.66632 24 5.03939 23.7454 4.52879 23.2363L0.765898 19.4839C0.2553 18.9748 0 18.3438 0 17.5911C0 16.8385 0.2553 16.2075 0.765898 15.6984L4.49549 11.9792V4.44137L19.6137 19.4839ZM5.62769 1.88447C8.00308 0.379112 10.5725 -0.224361 13.336 0.0740546C16.1003 0.373356 18.4815 1.5192 20.4795 3.51159C22.4775 5.50398 23.6261 7.87802 23.9253 10.6337C24.2255 13.3903 23.6208 15.953 22.1112 18.3217L20.1798 16.3957C21.1788 14.5804 21.5286 12.6598 21.2294 10.6337C20.9292 8.60857 20.0466 6.86545 18.5814 5.40436C17.1162 3.94328 15.3681 3.06308 13.3373 2.76378C11.3055 2.46537 9.37948 2.81425 7.55908 3.81045L5.62769 1.88447ZM9.55708 5.80284C10.8225 5.4265 12.099 5.34902 13.3866 5.57039C14.6742 5.79177 15.7842 6.36735 16.7166 7.29713C17.649 8.22691 18.2204 9.32848 18.4308 10.6018C18.6422 11.8743 18.5592 13.1415 18.1818 14.4033L15.9174 12.1453C15.9174 11.5918 15.8343 11.0548 15.6683 10.5341C15.5013 10.0143 15.2292 9.56624 14.8518 9.1899C14.4522 8.79142 13.9917 8.50364 13.4705 8.32653C12.9483 8.14943 12.3987 8.06088 11.8215 8.06088L9.55708 5.80284Z" fill="#A54CE5"/>
</svg>
