<svg width="22" height="25" viewBox="0 0 22 25" fill="none" xmlns="http://www.w3.org/2000/svg">
<path d="M21.6 19.4766H3.6C3.28174 19.4766 2.97652 19.6048 2.75147 19.8331C2.52643 20.0614 2.4 20.371 2.4 20.6939C2.4 21.0167 2.52643 21.3264 2.75147 21.5546C2.97652 21.7829 3.28174 21.9112 3.6 21.9112H21.6V24.3458H3.6C2.64522 24.3458 1.72955 23.961 1.05442 23.2761C0.379285 22.5913 0 21.6624 0 20.6939V2.43458C0 1.78889 0.252856 1.16964 0.702944 0.71307C1.15303 0.256499 1.76348 0 2.4 0H21.6V19.4766ZM15.6 8.52101V6.08644H6V8.52101H15.6Z" fill="#A54CE5"/>
</svg>
