<svg width="21" height="24" viewBox="0 0 21 24" fill="none" xmlns="http://www.w3.org/2000/svg">
<path d="M18.0936 5.13232C17.9327 5.04854 17.776 4.9567 17.6242 4.85714C17.183 4.56354 16.7784 4.21763 16.4193 3.82684C15.5195 2.7912 15.1836 1.74064 15.0607 1.00577H15.0649C14.9621 0.39463 15.0045 0 15.0119 0H10.9161V15.9377C10.9161 16.151 10.9161 16.3633 10.9076 16.5723C10.9076 16.5979 10.9044 16.6214 10.9033 16.6502C10.9033 16.6608 10.9033 16.6736 10.9002 16.6854V16.695C10.8572 17.2667 10.6752 17.819 10.3703 18.3033C10.0654 18.7876 9.64687 19.189 9.1516 19.4723C8.63491 19.7682 8.05049 19.9233 7.45603 19.9224C5.54851 19.9224 4.0013 18.3567 4.0013 16.423C4.0013 14.4882 5.54851 12.9225 7.45603 12.9225C7.8174 12.9225 8.17665 12.9801 8.52 13.0932L8.5253 8.89517C7.48254 8.75977 6.42321 8.8434 5.41418 9.14079C4.40515 9.43818 3.46833 9.94287 2.66286 10.623C1.95692 11.2401 1.36339 11.9764 0.908996 12.7988C0.73626 13.0985 0.0834639 14.3048 0.00504363 16.2609C-0.0447638 17.3701 0.286933 18.522 0.444833 18.9966V19.0073C0.543388 19.2867 0.929131 20.2424 1.55649 21.0476C2.06241 21.694 2.66015 22.2618 3.33049 22.7328V22.7221L3.34002 22.7328C5.32173 24.0873 7.52067 23.9988 7.52067 23.9988C7.90112 23.9828 9.17598 23.9988 10.6236 23.3087C12.2291 22.543 13.1426 21.4028 13.1426 21.4028C13.7266 20.7214 14.191 19.9448 14.516 19.1065C14.8869 18.1252 15.0098 16.9499 15.0098 16.4806V8.02378C15.0596 8.05365 15.7219 8.49414 15.7219 8.49414C15.7219 8.49414 16.6757 9.10955 18.1625 9.50951C19.2286 9.79428 20.6667 9.85508 20.6667 9.85508V5.76266C20.1633 5.81812 19.1406 5.65814 18.0926 5.13339L18.0936 5.13232Z" fill="#8634C1"/>
</svg>
