<svg width="24" height="20" viewBox="0 0 24 20" fill="none" xmlns="http://www.w3.org/2000/svg">
<path d="M24 2.27285C23.1013 2.66477 22.148 2.92203 21.1719 3.03607C22.1887 2.4362 22.9693 1.48629 23.3369 0.354475C22.3704 0.919076 21.3129 1.31687 20.2103 1.53068C19.312 0.588701 18.0324 0 16.6162 0C13.8968 0 11.6921 2.17023 11.6921 4.84693C11.6921 5.22688 11.7357 5.59676 11.8196 5.95161C7.72744 5.74941 4.09931 3.81977 1.67072 0.88725C1.24697 1.60312 1.00416 2.43583 1.00416 3.324C1.00416 5.00566 1.8735 6.48918 3.19462 7.35843C2.4127 7.33433 1.64798 7.12643 0.964313 6.75211C0.964031 6.77241 0.964031 6.79271 0.964031 6.81311C0.964031 9.16154 2.66128 11.1206 4.91372 11.5659C4.18864 11.76 3.42809 11.7884 2.69016 11.649C3.31669 13.5746 5.13516 14.9759 7.28972 15.0151C5.60456 16.3151 3.48141 17.09 1.17459 17.09C0.777094 17.09 0.385219 17.0671 0 17.0223C2.17903 18.3976 4.76719 19.2 7.54781 19.2C16.6047 19.2 21.5573 11.8142 21.5573 5.40905C21.5573 5.19882 21.5526 4.98979 21.543 4.78196C22.507 4.09597 23.339 3.24631 24 2.27285Z" fill="#8634C1"/>
</svg>
