<svg width="15" height="20" viewBox="0 0 15 20" fill="none" xmlns="http://www.w3.org/2000/svg">
<path d="M11.2776 0.8148C13.2747 3.47913 14.3909 6.70018 14.4705 10.029C14.5501 13.3578 13.5892 16.6285 11.7216 19.3853L10.1391 18.3132C11.7836 15.8858 12.6297 13.0058 12.5596 10.0747C12.4895 7.14355 11.5067 4.30729 9.74814 1.96125L11.2776 0.8148Z" fill="#A54CE5"/>
<path d="M7.74961 5.78669C8.80702 9.17323 8.70888 12.8152 7.47062 16.1398L5.67941 15.4727C6.76974 12.5452 6.85616 9.33836 5.92507 6.35639L7.74961 5.78669Z" fill="#A54CE5"/>
<path d="M2.3423 8.61607C2.50349 9.84343 2.5217 11.0853 2.39656 12.3169L0.494945 12.1237C0.605132 11.0392 0.589098 9.94569 0.447164 8.86496L2.3423 8.61607Z" fill="#A54CE5"/>
</svg>
